M48
;DRILL file {KiCad 5.0.2+dfsg1-1~bpo9+1} date Wednesday, 14 October, 2020 11:05:53 PM PST
;FORMAT={-:-/ absolute / inch / decimal}
FMAT,2
INCH,TZ
T1C0.0157
T2C0.0236
T3C0.0276
T4C0.0315
T5C0.0315
T6C0.0394
%
G90
G05
T1
X4.92Y-2.8725
X4.92Y-3.1075
X4.96Y-2.8725
X4.97Y-3.1075
X5.0175Y-3.1075
X5.065Y-3.1075
X5.09Y-1.92
X5.09Y-1.965
X5.09Y-2.01
X5.1775Y-2.355
X5.1775Y-2.3975
X5.285Y-2.23
X5.33Y-2.23
X5.43Y-2.925
X5.46Y-2.89
X5.465Y-1.915
X5.465Y-1.96
X5.465Y-2.005
X5.53Y-2.4725
X5.5425Y-2.7125
X5.59Y-3.1
X5.6375Y-3.1
X5.6825Y-2.25
X5.6825Y-3.1
X5.6875Y-2.4725
X5.81Y-2.93
X5.87Y-2.16
X5.87Y-2.21
X5.87Y-2.26
X5.87Y-2.31
X5.87Y-2.36
T2
X5.275Y-2.36
X5.3537Y-2.36
T3
X4.81Y-2.73
X4.86Y-2.68
X4.86Y-2.78
X5.25Y-2.77
X5.3Y-2.82
X5.35Y-2.77
T4
X5.05Y-2.085
X5.05Y-2.385
X5.495Y-2.13
X5.595Y-2.13
X5.695Y-2.13
X5.5491Y-2.595
X5.6475Y-2.595
X5.56Y-2.925
X5.6584Y-2.925
X4.77Y-2.1181
X4.77Y-2.315
X4.925Y-2.085
X4.925Y-2.385
X5.79Y-2.525
X5.79Y-2.825
X5.5466Y-2.3525
X5.645Y-2.3525
X5.18Y-2.145
X5.3769Y-2.145
T5
X4.76Y-1.96
X4.885Y-1.96
X5.01Y-1.96
X5.07Y-2.5475
X5.195Y-2.5475
X5.32Y-2.5475
X5.56Y-1.96
X5.685Y-1.96
X5.81Y-1.96
X5.225Y-1.96
X5.375Y-1.96
T6
X5.795Y-3.03
X5.08Y-2.7025
X4.79Y-3.025
X4.805Y-2.505
T0
M30
