G04 #@! TF.GenerationSoftware,KiCad,Pcbnew,5.0.2+dfsg1-1~bpo9+1*
G04 #@! TF.CreationDate,2020-10-14T23:05:51+08:00*
G04 #@! TF.ProjectId,BC108 NPN Fuzz Face,42433130-3820-44e5-904e-2046757a7a20,rev?*
G04 #@! TF.SameCoordinates,Original*
G04 #@! TF.FileFunction,Copper,L1,Top*
G04 #@! TF.FilePolarity,Positive*
%FSLAX46Y46*%
G04 Gerber Fmt 4.6, Leading zero omitted, Abs format (unit mm)*
G04 Created by KiCad (PCBNEW 5.0.2+dfsg1-1~bpo9+1) date Wednesday, 14 October, 2020 11:05:51 PM PST*
%MOMM*%
%LPD*%
G01*
G04 APERTURE LIST*
G04 #@! TA.AperFunction,ComponentPad*
%ADD10C,1.998980*%
G04 #@! TD*
G04 #@! TA.AperFunction,ComponentPad*
%ADD11R,1.998980X1.998980*%
G04 #@! TD*
G04 #@! TA.AperFunction,ComponentPad*
%ADD12R,1.600000X1.600000*%
G04 #@! TD*
G04 #@! TA.AperFunction,ComponentPad*
%ADD13C,1.600000*%
G04 #@! TD*
G04 #@! TA.AperFunction,ComponentPad*
%ADD14C,1.200000*%
G04 #@! TD*
G04 #@! TA.AperFunction,ComponentPad*
%ADD15O,1.200000X1.600000*%
G04 #@! TD*
G04 #@! TA.AperFunction,ComponentPad*
%ADD16O,1.200000X1.200000*%
G04 #@! TD*
G04 #@! TA.AperFunction,ComponentPad*
%ADD17O,1.600000X1.200000*%
G04 #@! TD*
G04 #@! TA.AperFunction,ComponentPad*
%ADD18O,1.600000X1.600000*%
G04 #@! TD*
G04 #@! TA.AperFunction,ComponentPad*
%ADD19C,1.440000*%
G04 #@! TD*
G04 #@! TA.AperFunction,ComponentPad*
%ADD20R,1.700000X1.700000*%
G04 #@! TD*
G04 #@! TA.AperFunction,ViaPad*
%ADD21C,0.800000*%
G04 #@! TD*
G04 #@! TA.AperFunction,Conductor*
%ADD22C,0.700000*%
G04 #@! TD*
G04 #@! TA.AperFunction,Conductor*
%ADD23C,0.254000*%
G04 #@! TD*
G04 APERTURE END LIST*
D10*
G04 #@! TO.P,Bias,3*
G04 #@! TO.N,N/C*
X135128000Y-64706500D03*
G04 #@! TO.P,Bias,2*
G04 #@! TO.N,Net-(Bias1-Pad2)*
X131953000Y-64706500D03*
D11*
G04 #@! TO.P,Bias,1*
G04 #@! TO.N,Net-(Bias1-Pad1)*
X128778000Y-64706500D03*
G04 #@! TD*
D12*
G04 #@! TO.P,C1,1*
G04 #@! TO.N,Net-(C1-Pad1)*
X143383000Y-59753500D03*
D13*
G04 #@! TO.P,C1,2*
G04 #@! TO.N,Earth*
X140883000Y-59753500D03*
G04 #@! TD*
G04 #@! TO.P,C2,1*
G04 #@! TO.N,Net-(Bias1-Pad2)*
X121158000Y-58801000D03*
G04 #@! TO.P,C2,2*
G04 #@! TO.N,Net-(C2-Pad2)*
X121158000Y-53801000D03*
G04 #@! TD*
D14*
G04 #@! TO.P,C3,1*
G04 #@! TO.N,+9V*
X133985000Y-59944000D03*
G04 #@! TO.P,C3,2*
G04 #@! TO.N,Earth*
X135985000Y-59944000D03*
G04 #@! TD*
D13*
G04 #@! TO.P,C4,1*
G04 #@! TO.N,+9V*
X131572000Y-54483000D03*
G04 #@! TO.P,C4,2*
G04 #@! TO.N,Earth*
X136572000Y-54483000D03*
G04 #@! TD*
G04 #@! TO.P,C5,2*
G04 #@! TO.N,Net-(C5-Pad2)*
X143724000Y-74295000D03*
D12*
G04 #@! TO.P,C5,1*
G04 #@! TO.N,Net-(C5-Pad1)*
X141224000Y-74295000D03*
G04 #@! TD*
D11*
G04 #@! TO.P,Gain,1*
G04 #@! TO.N,Net-(Gain1-Pad1)*
X147574000Y-49784000D03*
D10*
G04 #@! TO.P,Gain,2*
G04 #@! TO.N,Net-(C1-Pad1)*
X144399000Y-49784000D03*
G04 #@! TO.P,Gain,3*
G04 #@! TO.N,Earth*
X141224000Y-49784000D03*
G04 #@! TD*
D11*
G04 #@! TO.P,+9V,1*
G04 #@! TO.N,+9V*
X132715000Y-49784000D03*
D10*
G04 #@! TO.P,+9V,2*
G04 #@! TO.N,Earth*
X136525000Y-49784000D03*
G04 #@! TD*
D15*
G04 #@! TO.P,Q1,1*
G04 #@! TO.N,Net-(Q1-Pad1)*
X123444000Y-68072000D03*
D16*
G04 #@! TO.P,Q1,2*
G04 #@! TO.N,Net-(C5-Pad1)*
X122174000Y-69342000D03*
G04 #@! TO.P,Q1,3*
G04 #@! TO.N,Earth*
X123444000Y-70612000D03*
G04 #@! TD*
G04 #@! TO.P,Q2,3*
G04 #@! TO.N,Net-(Gain1-Pad1)*
X135890000Y-70358000D03*
G04 #@! TO.P,Q2,2*
G04 #@! TO.N,Net-(Q1-Pad1)*
X134620000Y-71628000D03*
D17*
G04 #@! TO.P,Q2,1*
G04 #@! TO.N,Net-(Q2-Pad1)*
X133350000Y-70358000D03*
G04 #@! TD*
D18*
G04 #@! TO.P,R1,2*
G04 #@! TO.N,Net-(Q1-Pad1)*
X125095000Y-60579000D03*
D13*
G04 #@! TO.P,R1,1*
G04 #@! TO.N,+9V*
X125095000Y-52959000D03*
G04 #@! TD*
G04 #@! TO.P,R2,1*
G04 #@! TO.N,Net-(Gain1-Pad1)*
X147066000Y-64135000D03*
D18*
G04 #@! TO.P,R2,2*
G04 #@! TO.N,Net-(C5-Pad1)*
X147066000Y-71755000D03*
G04 #@! TD*
D13*
G04 #@! TO.P,R3,1*
G04 #@! TO.N,Net-(Bias1-Pad2)*
X128270000Y-60579000D03*
D18*
G04 #@! TO.P,R3,2*
G04 #@! TO.N,+9V*
X128270000Y-52959000D03*
G04 #@! TD*
D19*
G04 #@! TO.P,R4,1*
G04 #@! TO.N,Net-(Bias1-Pad1)*
X139573000Y-54102000D03*
G04 #@! TO.P,R4,2*
G04 #@! TO.N,Net-(Q2-Pad1)*
X142113000Y-54102000D03*
G04 #@! TO.P,R4,3*
G04 #@! TO.N,N/C*
X144653000Y-54102000D03*
G04 #@! TD*
D11*
G04 #@! TO.P,Volume,1*
G04 #@! TO.N,Net-(C2-Pad2)*
X120904000Y-49784000D03*
D10*
G04 #@! TO.P,Volume,2*
G04 #@! TO.N,Net-(Volume1-Pad2)*
X124079000Y-49784000D03*
G04 #@! TO.P,Volume,3*
G04 #@! TO.N,Earth*
X127254000Y-49784000D03*
G04 #@! TD*
D20*
G04 #@! TO.P,In,1*
G04 #@! TO.N,Net-(C5-Pad2)*
X147193000Y-76962000D03*
G04 #@! TD*
G04 #@! TO.P,Out,1*
G04 #@! TO.N,Net-(Volume1-Pad2)*
X121666000Y-76835000D03*
G04 #@! TD*
G04 #@! TO.P,W3,1*
G04 #@! TO.N,Net-(Q2-Pad1)*
X129032000Y-68643500D03*
G04 #@! TD*
G04 #@! TO.P,W4,1*
G04 #@! TO.N,Net-(Q1-Pad1)*
X122047000Y-63627000D03*
G04 #@! TD*
D12*
G04 #@! TO.P,C6,1*
G04 #@! TO.N,Net-(C1-Pad1)*
X143446500Y-65913000D03*
D13*
G04 #@! TO.P,C6,2*
G04 #@! TO.N,Earth*
X140946500Y-65913000D03*
G04 #@! TD*
D21*
G04 #@! TO.N,Earth*
X144335500Y-78740000D03*
X143192500Y-78740000D03*
X141986000Y-78740000D03*
X137922000Y-74295000D03*
X138684000Y-73406000D03*
X138811000Y-48641000D03*
X138811000Y-49784000D03*
X138811000Y-50927000D03*
X129286000Y-48768000D03*
X129286000Y-49911000D03*
X129286000Y-51054000D03*
X135382000Y-56642000D03*
X134239000Y-56642000D03*
X149098000Y-56134000D03*
X149098000Y-57404000D03*
X149098000Y-58674000D03*
X149098000Y-59944000D03*
X149098000Y-54864000D03*
X147574000Y-74422000D03*
X125984000Y-72961500D03*
X124968000Y-72961500D03*
X131508500Y-59817000D03*
X124968000Y-78930500D03*
X126238000Y-78930500D03*
X127444500Y-78930500D03*
X128651000Y-78930500D03*
X140462000Y-62801500D03*
X140779500Y-68897500D03*
X144462500Y-62801500D03*
X144335500Y-57150000D03*
X131508500Y-60896500D03*
G04 #@! TD*
D22*
G04 #@! TO.N,Net-(Bias1-Pad2)*
X128270000Y-61023500D02*
X131953000Y-64706500D01*
X128270000Y-60579000D02*
X128270000Y-61023500D01*
X125222000Y-57531000D02*
X128270000Y-60579000D01*
X122428000Y-57531000D02*
X125222000Y-57531000D01*
X121158000Y-58801000D02*
X122428000Y-57531000D01*
G04 #@! TO.N,Net-(C1-Pad1)*
X146558000Y-56578500D02*
X143383000Y-59753500D01*
X146558000Y-52324000D02*
X146558000Y-56578500D01*
X144399000Y-50165000D02*
X146558000Y-52324000D01*
X144399000Y-49784000D02*
X144399000Y-50165000D01*
X143383000Y-65849500D02*
X143446500Y-65913000D01*
X143383000Y-59753500D02*
X143383000Y-65849500D01*
G04 #@! TO.N,Net-(C2-Pad2)*
X120904000Y-53547000D02*
X121158000Y-53801000D01*
X120904000Y-49784000D02*
X120904000Y-53547000D01*
G04 #@! TO.N,+9V*
X125095000Y-52959000D02*
X128270000Y-52959000D01*
X129794000Y-54483000D02*
X128270000Y-52959000D01*
X131826000Y-54483000D02*
X129794000Y-54483000D01*
X131445000Y-57404000D02*
X133985000Y-59944000D01*
X131445000Y-54864000D02*
X131445000Y-57404000D01*
X131826000Y-54483000D02*
X131445000Y-54864000D01*
X131318000Y-51181000D02*
X132715000Y-49784000D01*
X131318000Y-53975000D02*
X131318000Y-51181000D01*
X131826000Y-54483000D02*
X131318000Y-53975000D01*
G04 #@! TO.N,Net-(C5-Pad2)*
X147193000Y-76922000D02*
X147193000Y-76962000D01*
X146391000Y-76962000D02*
X143724000Y-74295000D01*
X147193000Y-76962000D02*
X146391000Y-76962000D01*
G04 #@! TO.N,Net-(C5-Pad1)*
X122174000Y-73342500D02*
X123253500Y-74422000D01*
X122174000Y-69342000D02*
X122174000Y-73342500D01*
X145934630Y-71755000D02*
X147066000Y-71755000D01*
X135255000Y-74422000D02*
X137922000Y-71755000D01*
X123253500Y-74422000D02*
X135255000Y-74422000D01*
X140184000Y-71755000D02*
X139636500Y-71755000D01*
X141224000Y-72795000D02*
X140184000Y-71755000D01*
X141224000Y-74295000D02*
X141224000Y-72795000D01*
X137922000Y-71755000D02*
X139636500Y-71755000D01*
X139636500Y-71755000D02*
X145934630Y-71755000D01*
G04 #@! TO.N,Net-(Gain1-Pad1)*
X147574000Y-63627000D02*
X147066000Y-64135000D01*
X147574000Y-49784000D02*
X147574000Y-63627000D01*
X147066000Y-66802000D02*
X147066000Y-64135000D01*
X143510000Y-70358000D02*
X147066000Y-66802000D01*
X135890000Y-70358000D02*
X143510000Y-70358000D01*
G04 #@! TO.N,Net-(Q1-Pad1)*
X125095000Y-66421000D02*
X123444000Y-68072000D01*
X125095000Y-60579000D02*
X125095000Y-66421000D01*
X125095000Y-65125000D02*
X125095000Y-66421000D01*
X123597000Y-63627000D02*
X125095000Y-65125000D01*
X122047000Y-63627000D02*
X123597000Y-63627000D01*
X128016000Y-72898000D02*
X133350000Y-72898000D01*
X133350000Y-72898000D02*
X134620000Y-71628000D01*
X123444000Y-68326000D02*
X128016000Y-72898000D01*
X123444000Y-68072000D02*
X123444000Y-68326000D01*
G04 #@! TO.N,Net-(Q2-Pad1)*
X131635500Y-68643500D02*
X133350000Y-70358000D01*
X129032000Y-68643500D02*
X131635500Y-68643500D01*
X138811000Y-57404000D02*
X142113000Y-54102000D01*
X133350000Y-70358000D02*
X133550000Y-70358000D01*
X133550000Y-70358000D02*
X135201000Y-68707000D01*
X136779000Y-68707000D02*
X138811000Y-66675000D01*
X138811000Y-66675000D02*
X138811000Y-57404000D01*
X135201000Y-68707000D02*
X136779000Y-68707000D01*
G04 #@! TO.N,Net-(Volume1-Pad2)*
X119507000Y-57340500D02*
X119507000Y-73126000D01*
X120840500Y-56007000D02*
X119507000Y-57340500D01*
X122428000Y-56007000D02*
X120840500Y-56007000D01*
X119507000Y-73126000D02*
X121666000Y-75285000D01*
X124079000Y-49784000D02*
X123165564Y-50697436D01*
X123165564Y-50697436D02*
X123165564Y-55269436D01*
X121666000Y-75285000D02*
X121666000Y-76835000D01*
X123165564Y-55269436D02*
X122428000Y-56007000D01*
G04 #@! TO.N,Net-(Bias1-Pad1)*
X137668000Y-56007000D02*
X139573000Y-54102000D01*
X137668000Y-65468500D02*
X137668000Y-56007000D01*
X128778000Y-64706500D02*
X129222500Y-64706500D01*
X129222500Y-64706500D02*
X131191000Y-66675000D01*
X131191000Y-66675000D02*
X136461500Y-66675000D01*
X136461500Y-66675000D02*
X137668000Y-65468500D01*
G04 #@! TD*
D23*
G04 #@! TO.N,Earth*
G36*
X149606000Y-79502000D02*
X119253000Y-79502000D01*
X119253000Y-74265000D01*
X120452305Y-75464305D01*
X120358191Y-75527191D01*
X120217843Y-75737235D01*
X120168560Y-75985000D01*
X120168560Y-77685000D01*
X120217843Y-77932765D01*
X120358191Y-78142809D01*
X120568235Y-78283157D01*
X120816000Y-78332440D01*
X122516000Y-78332440D01*
X122763765Y-78283157D01*
X122973809Y-78142809D01*
X123114157Y-77932765D01*
X123163440Y-77685000D01*
X123163440Y-75985000D01*
X123114157Y-75737235D01*
X122973809Y-75527191D01*
X122763765Y-75386843D01*
X122654367Y-75365083D01*
X122670296Y-75284999D01*
X122654689Y-75206537D01*
X122869172Y-75349849D01*
X123253500Y-75426297D01*
X123350512Y-75407000D01*
X135157992Y-75407000D01*
X135255000Y-75426296D01*
X135352008Y-75407000D01*
X135352012Y-75407000D01*
X135639328Y-75349849D01*
X135965145Y-75132145D01*
X136020098Y-75049902D01*
X138330001Y-72740000D01*
X139776000Y-72740000D01*
X140030333Y-72994333D01*
X139966191Y-73037191D01*
X139825843Y-73247235D01*
X139776560Y-73495000D01*
X139776560Y-75095000D01*
X139825843Y-75342765D01*
X139966191Y-75552809D01*
X140176235Y-75693157D01*
X140424000Y-75742440D01*
X142024000Y-75742440D01*
X142271765Y-75693157D01*
X142481809Y-75552809D01*
X142622157Y-75342765D01*
X142642101Y-75242497D01*
X142911138Y-75511534D01*
X143438561Y-75730000D01*
X143766000Y-75730000D01*
X145625904Y-77589905D01*
X145680855Y-77672145D01*
X145695560Y-77681971D01*
X145695560Y-77812000D01*
X145744843Y-78059765D01*
X145885191Y-78269809D01*
X146095235Y-78410157D01*
X146343000Y-78459440D01*
X148043000Y-78459440D01*
X148290765Y-78410157D01*
X148500809Y-78269809D01*
X148641157Y-78059765D01*
X148690440Y-77812000D01*
X148690440Y-76112000D01*
X148641157Y-75864235D01*
X148500809Y-75654191D01*
X148290765Y-75513843D01*
X148043000Y-75464560D01*
X146343000Y-75464560D01*
X146295924Y-75473924D01*
X145159000Y-74337000D01*
X145159000Y-74009561D01*
X144940534Y-73482138D01*
X144536862Y-73078466D01*
X144009439Y-72860000D01*
X143438561Y-72860000D01*
X142911138Y-73078466D01*
X142642101Y-73347503D01*
X142622157Y-73247235D01*
X142481809Y-73037191D01*
X142271765Y-72896843D01*
X142210464Y-72884650D01*
X142228296Y-72794999D01*
X142217356Y-72740000D01*
X145998297Y-72740000D01*
X146031423Y-72789577D01*
X146506091Y-73106740D01*
X146924667Y-73190000D01*
X147207333Y-73190000D01*
X147625909Y-73106740D01*
X148100577Y-72789577D01*
X148417740Y-72314909D01*
X148529113Y-71755000D01*
X148417740Y-71195091D01*
X148100577Y-70720423D01*
X147625909Y-70403260D01*
X147207333Y-70320000D01*
X146924667Y-70320000D01*
X146506091Y-70403260D01*
X146031423Y-70720423D01*
X145998297Y-70770000D01*
X144491000Y-70770000D01*
X147693902Y-67567098D01*
X147776145Y-67512145D01*
X147993849Y-67186328D01*
X148051000Y-66899012D01*
X148051000Y-66899008D01*
X148070296Y-66802001D01*
X148051000Y-66704994D01*
X148051000Y-65179396D01*
X148282534Y-64947862D01*
X148501000Y-64420439D01*
X148501000Y-64012599D01*
X148501849Y-64011328D01*
X148559000Y-63724012D01*
X148559000Y-63724008D01*
X148578296Y-63627001D01*
X148559000Y-63529994D01*
X148559000Y-51430930D01*
X148573490Y-51430930D01*
X148821255Y-51381647D01*
X149031299Y-51241299D01*
X149171647Y-51031255D01*
X149220930Y-50783490D01*
X149220930Y-48784510D01*
X149171647Y-48536745D01*
X149031299Y-48326701D01*
X148821255Y-48186353D01*
X148573490Y-48137070D01*
X146574510Y-48137070D01*
X146326745Y-48186353D01*
X146116701Y-48326701D01*
X145976353Y-48536745D01*
X145927070Y-48784510D01*
X145927070Y-49201959D01*
X145784654Y-48858136D01*
X145324864Y-48398346D01*
X144724120Y-48149510D01*
X144073880Y-48149510D01*
X143473136Y-48398346D01*
X143013346Y-48858136D01*
X142817405Y-49331180D01*
X142642965Y-48910042D01*
X142376163Y-48811443D01*
X141403605Y-49784000D01*
X142376163Y-50756557D01*
X142642965Y-50657958D01*
X142807919Y-50213920D01*
X143013346Y-50709864D01*
X143473136Y-51169654D01*
X144073880Y-51418490D01*
X144259490Y-51418490D01*
X145573000Y-52732000D01*
X145573000Y-53105740D01*
X145420546Y-52953286D01*
X144922526Y-52747000D01*
X144383474Y-52747000D01*
X143885454Y-52953286D01*
X143504286Y-53334454D01*
X143383000Y-53627265D01*
X143261714Y-53334454D01*
X142880546Y-52953286D01*
X142382526Y-52747000D01*
X141843474Y-52747000D01*
X141345454Y-52953286D01*
X140964286Y-53334454D01*
X140843000Y-53627265D01*
X140721714Y-53334454D01*
X140340546Y-52953286D01*
X139842526Y-52747000D01*
X139303474Y-52747000D01*
X138805454Y-52953286D01*
X138424286Y-53334454D01*
X138218000Y-53832474D01*
X138218000Y-54063999D01*
X137999090Y-54282910D01*
X137991778Y-54129546D01*
X137825864Y-53728995D01*
X137579745Y-53654861D01*
X136751605Y-54483000D01*
X136765748Y-54497142D01*
X136586142Y-54676748D01*
X136572000Y-54662605D01*
X135743861Y-55490745D01*
X135817995Y-55736864D01*
X136355223Y-55929965D01*
X136682127Y-55914379D01*
X136663704Y-56007000D01*
X136683001Y-56104013D01*
X136683001Y-59066391D01*
X136668129Y-59081263D01*
X136618617Y-58855836D01*
X136153964Y-58696193D01*
X135663587Y-58726518D01*
X135351383Y-58855836D01*
X135301870Y-59081265D01*
X135985000Y-59764395D01*
X135999143Y-59750253D01*
X136178748Y-59929858D01*
X136164605Y-59944000D01*
X136178748Y-59958143D01*
X135999143Y-60137748D01*
X135985000Y-60123605D01*
X135301870Y-60806735D01*
X135351383Y-61032164D01*
X135816036Y-61191807D01*
X136306413Y-61161482D01*
X136618617Y-61032164D01*
X136668129Y-60806737D01*
X136683001Y-60821609D01*
X136683000Y-64189474D01*
X136513654Y-63780636D01*
X136053864Y-63320846D01*
X135453120Y-63072010D01*
X134802880Y-63072010D01*
X134202136Y-63320846D01*
X133742346Y-63780636D01*
X133540500Y-64267936D01*
X133338654Y-63780636D01*
X132878864Y-63320846D01*
X132278120Y-63072010D01*
X131711511Y-63072010D01*
X129646111Y-61006610D01*
X129705000Y-60864439D01*
X129705000Y-60293561D01*
X129486534Y-59766138D01*
X129082862Y-59362466D01*
X128555439Y-59144000D01*
X128228001Y-59144000D01*
X125987098Y-56903098D01*
X125932145Y-56820855D01*
X125606328Y-56603151D01*
X125319012Y-56546000D01*
X125319008Y-56546000D01*
X125222000Y-56526704D01*
X125124992Y-56546000D01*
X123282000Y-56546000D01*
X123793468Y-56034532D01*
X123875709Y-55979581D01*
X123930660Y-55897341D01*
X123930662Y-55897339D01*
X124093413Y-55653764D01*
X124099598Y-55622672D01*
X124150564Y-55366448D01*
X124150564Y-55366445D01*
X124169860Y-55269437D01*
X124150564Y-55172429D01*
X124150564Y-54043960D01*
X124282138Y-54175534D01*
X124809561Y-54394000D01*
X125380439Y-54394000D01*
X125907862Y-54175534D01*
X126139396Y-53944000D01*
X127202297Y-53944000D01*
X127235423Y-53993577D01*
X127710091Y-54310740D01*
X128128667Y-54394000D01*
X128312000Y-54394000D01*
X129028902Y-55110902D01*
X129083855Y-55193145D01*
X129409672Y-55410849D01*
X129696988Y-55468000D01*
X129696992Y-55468000D01*
X129793999Y-55487296D01*
X129891006Y-55468000D01*
X130460000Y-55468000D01*
X130460001Y-57306987D01*
X130440704Y-57404000D01*
X130517151Y-57788327D01*
X130679902Y-58031902D01*
X130679905Y-58031905D01*
X130734856Y-58114145D01*
X130817096Y-58169096D01*
X132750000Y-60102000D01*
X132750000Y-60189657D01*
X132938018Y-60643571D01*
X133285429Y-60990982D01*
X133739343Y-61179000D01*
X134230657Y-61179000D01*
X134684571Y-60990982D01*
X135031982Y-60643571D01*
X135045753Y-60610325D01*
X135122265Y-60627130D01*
X135805395Y-59944000D01*
X135122265Y-59260870D01*
X135045753Y-59277675D01*
X135031982Y-59244429D01*
X134684571Y-58897018D01*
X134230657Y-58709000D01*
X134143000Y-58709000D01*
X132430000Y-56996000D01*
X132430000Y-55654396D01*
X132788534Y-55295862D01*
X133007000Y-54768439D01*
X133007000Y-54266223D01*
X135125035Y-54266223D01*
X135152222Y-54836454D01*
X135318136Y-55237005D01*
X135564255Y-55311139D01*
X136392395Y-54483000D01*
X135564255Y-53654861D01*
X135318136Y-53728995D01*
X135125035Y-54266223D01*
X133007000Y-54266223D01*
X133007000Y-54197561D01*
X132788534Y-53670138D01*
X132593651Y-53475255D01*
X135743861Y-53475255D01*
X136572000Y-54303395D01*
X137400139Y-53475255D01*
X137326005Y-53229136D01*
X136788777Y-53036035D01*
X136218546Y-53063222D01*
X135817995Y-53229136D01*
X135743861Y-53475255D01*
X132593651Y-53475255D01*
X132384862Y-53266466D01*
X132303000Y-53232558D01*
X132303000Y-51589000D01*
X132461070Y-51430930D01*
X133714490Y-51430930D01*
X133962255Y-51381647D01*
X134172299Y-51241299D01*
X134312647Y-51031255D01*
X134331561Y-50936163D01*
X135552443Y-50936163D01*
X135651042Y-51202965D01*
X136260582Y-51429401D01*
X136910377Y-51405341D01*
X137398958Y-51202965D01*
X137497557Y-50936163D01*
X140251443Y-50936163D01*
X140350042Y-51202965D01*
X140959582Y-51429401D01*
X141609377Y-51405341D01*
X142097958Y-51202965D01*
X142196557Y-50936163D01*
X141224000Y-49963605D01*
X140251443Y-50936163D01*
X137497557Y-50936163D01*
X136525000Y-49963605D01*
X135552443Y-50936163D01*
X134331561Y-50936163D01*
X134361930Y-50783490D01*
X134361930Y-49519582D01*
X134879599Y-49519582D01*
X134903659Y-50169377D01*
X135106035Y-50657958D01*
X135372837Y-50756557D01*
X136345395Y-49784000D01*
X136704605Y-49784000D01*
X137677163Y-50756557D01*
X137943965Y-50657958D01*
X138170401Y-50048418D01*
X138150820Y-49519582D01*
X139578599Y-49519582D01*
X139602659Y-50169377D01*
X139805035Y-50657958D01*
X140071837Y-50756557D01*
X141044395Y-49784000D01*
X140071837Y-48811443D01*
X139805035Y-48910042D01*
X139578599Y-49519582D01*
X138150820Y-49519582D01*
X138146341Y-49398623D01*
X137943965Y-48910042D01*
X137677163Y-48811443D01*
X136704605Y-49784000D01*
X136345395Y-49784000D01*
X135372837Y-48811443D01*
X135106035Y-48910042D01*
X134879599Y-49519582D01*
X134361930Y-49519582D01*
X134361930Y-48784510D01*
X134331562Y-48631837D01*
X135552443Y-48631837D01*
X136525000Y-49604395D01*
X137497557Y-48631837D01*
X140251443Y-48631837D01*
X141224000Y-49604395D01*
X142196557Y-48631837D01*
X142097958Y-48365035D01*
X141488418Y-48138599D01*
X140838623Y-48162659D01*
X140350042Y-48365035D01*
X140251443Y-48631837D01*
X137497557Y-48631837D01*
X137398958Y-48365035D01*
X136789418Y-48138599D01*
X136139623Y-48162659D01*
X135651042Y-48365035D01*
X135552443Y-48631837D01*
X134331562Y-48631837D01*
X134312647Y-48536745D01*
X134172299Y-48326701D01*
X133962255Y-48186353D01*
X133714490Y-48137070D01*
X131715510Y-48137070D01*
X131467745Y-48186353D01*
X131257701Y-48326701D01*
X131117353Y-48536745D01*
X131068070Y-48784510D01*
X131068070Y-50037930D01*
X130690096Y-50415904D01*
X130607856Y-50470855D01*
X130552905Y-50553095D01*
X130552902Y-50553098D01*
X130390151Y-50796673D01*
X130313704Y-51181000D01*
X130333001Y-51278013D01*
X130333000Y-53498000D01*
X130202000Y-53498000D01*
X129721480Y-53017480D01*
X129733113Y-52959000D01*
X129621740Y-52399091D01*
X129304577Y-51924423D01*
X128829909Y-51607260D01*
X128411333Y-51524000D01*
X128128667Y-51524000D01*
X127710091Y-51607260D01*
X127235423Y-51924423D01*
X127202297Y-51974000D01*
X126139396Y-51974000D01*
X125907862Y-51742466D01*
X125380439Y-51524000D01*
X124809561Y-51524000D01*
X124282138Y-51742466D01*
X124150564Y-51874040D01*
X124150564Y-51418490D01*
X124404120Y-51418490D01*
X125004864Y-51169654D01*
X125238355Y-50936163D01*
X126281443Y-50936163D01*
X126380042Y-51202965D01*
X126989582Y-51429401D01*
X127639377Y-51405341D01*
X128127958Y-51202965D01*
X128226557Y-50936163D01*
X127254000Y-49963605D01*
X126281443Y-50936163D01*
X125238355Y-50936163D01*
X125464654Y-50709864D01*
X125660595Y-50236820D01*
X125835035Y-50657958D01*
X126101837Y-50756557D01*
X127074395Y-49784000D01*
X127433605Y-49784000D01*
X128406163Y-50756557D01*
X128672965Y-50657958D01*
X128899401Y-50048418D01*
X128875341Y-49398623D01*
X128672965Y-48910042D01*
X128406163Y-48811443D01*
X127433605Y-49784000D01*
X127074395Y-49784000D01*
X126101837Y-48811443D01*
X125835035Y-48910042D01*
X125670081Y-49354080D01*
X125464654Y-48858136D01*
X125238355Y-48631837D01*
X126281443Y-48631837D01*
X127254000Y-49604395D01*
X128226557Y-48631837D01*
X128127958Y-48365035D01*
X127518418Y-48138599D01*
X126868623Y-48162659D01*
X126380042Y-48365035D01*
X126281443Y-48631837D01*
X125238355Y-48631837D01*
X125004864Y-48398346D01*
X124404120Y-48149510D01*
X123753880Y-48149510D01*
X123153136Y-48398346D01*
X122693346Y-48858136D01*
X122550930Y-49201959D01*
X122550930Y-48784510D01*
X122501647Y-48536745D01*
X122361299Y-48326701D01*
X122151255Y-48186353D01*
X121903490Y-48137070D01*
X119904510Y-48137070D01*
X119656745Y-48186353D01*
X119446701Y-48326701D01*
X119306353Y-48536745D01*
X119257070Y-48784510D01*
X119257070Y-50783490D01*
X119306353Y-51031255D01*
X119446701Y-51241299D01*
X119656745Y-51381647D01*
X119904510Y-51430930D01*
X119919000Y-51430930D01*
X119919001Y-53042374D01*
X119723000Y-53515561D01*
X119723000Y-54086439D01*
X119941466Y-54613862D01*
X120345138Y-55017534D01*
X120481656Y-55074082D01*
X120456172Y-55079151D01*
X120212597Y-55241902D01*
X120212595Y-55241904D01*
X120130355Y-55296855D01*
X120075404Y-55379095D01*
X119253000Y-56201500D01*
X119253000Y-47781980D01*
X119331490Y-47625000D01*
X149606000Y-47625000D01*
X149606000Y-79502000D01*
X149606000Y-79502000D01*
G37*
X149606000Y-79502000D02*
X119253000Y-79502000D01*
X119253000Y-74265000D01*
X120452305Y-75464305D01*
X120358191Y-75527191D01*
X120217843Y-75737235D01*
X120168560Y-75985000D01*
X120168560Y-77685000D01*
X120217843Y-77932765D01*
X120358191Y-78142809D01*
X120568235Y-78283157D01*
X120816000Y-78332440D01*
X122516000Y-78332440D01*
X122763765Y-78283157D01*
X122973809Y-78142809D01*
X123114157Y-77932765D01*
X123163440Y-77685000D01*
X123163440Y-75985000D01*
X123114157Y-75737235D01*
X122973809Y-75527191D01*
X122763765Y-75386843D01*
X122654367Y-75365083D01*
X122670296Y-75284999D01*
X122654689Y-75206537D01*
X122869172Y-75349849D01*
X123253500Y-75426297D01*
X123350512Y-75407000D01*
X135157992Y-75407000D01*
X135255000Y-75426296D01*
X135352008Y-75407000D01*
X135352012Y-75407000D01*
X135639328Y-75349849D01*
X135965145Y-75132145D01*
X136020098Y-75049902D01*
X138330001Y-72740000D01*
X139776000Y-72740000D01*
X140030333Y-72994333D01*
X139966191Y-73037191D01*
X139825843Y-73247235D01*
X139776560Y-73495000D01*
X139776560Y-75095000D01*
X139825843Y-75342765D01*
X139966191Y-75552809D01*
X140176235Y-75693157D01*
X140424000Y-75742440D01*
X142024000Y-75742440D01*
X142271765Y-75693157D01*
X142481809Y-75552809D01*
X142622157Y-75342765D01*
X142642101Y-75242497D01*
X142911138Y-75511534D01*
X143438561Y-75730000D01*
X143766000Y-75730000D01*
X145625904Y-77589905D01*
X145680855Y-77672145D01*
X145695560Y-77681971D01*
X145695560Y-77812000D01*
X145744843Y-78059765D01*
X145885191Y-78269809D01*
X146095235Y-78410157D01*
X146343000Y-78459440D01*
X148043000Y-78459440D01*
X148290765Y-78410157D01*
X148500809Y-78269809D01*
X148641157Y-78059765D01*
X148690440Y-77812000D01*
X148690440Y-76112000D01*
X148641157Y-75864235D01*
X148500809Y-75654191D01*
X148290765Y-75513843D01*
X148043000Y-75464560D01*
X146343000Y-75464560D01*
X146295924Y-75473924D01*
X145159000Y-74337000D01*
X145159000Y-74009561D01*
X144940534Y-73482138D01*
X144536862Y-73078466D01*
X144009439Y-72860000D01*
X143438561Y-72860000D01*
X142911138Y-73078466D01*
X142642101Y-73347503D01*
X142622157Y-73247235D01*
X142481809Y-73037191D01*
X142271765Y-72896843D01*
X142210464Y-72884650D01*
X142228296Y-72794999D01*
X142217356Y-72740000D01*
X145998297Y-72740000D01*
X146031423Y-72789577D01*
X146506091Y-73106740D01*
X146924667Y-73190000D01*
X147207333Y-73190000D01*
X147625909Y-73106740D01*
X148100577Y-72789577D01*
X148417740Y-72314909D01*
X148529113Y-71755000D01*
X148417740Y-71195091D01*
X148100577Y-70720423D01*
X147625909Y-70403260D01*
X147207333Y-70320000D01*
X146924667Y-70320000D01*
X146506091Y-70403260D01*
X146031423Y-70720423D01*
X145998297Y-70770000D01*
X144491000Y-70770000D01*
X147693902Y-67567098D01*
X147776145Y-67512145D01*
X147993849Y-67186328D01*
X148051000Y-66899012D01*
X148051000Y-66899008D01*
X148070296Y-66802001D01*
X148051000Y-66704994D01*
X148051000Y-65179396D01*
X148282534Y-64947862D01*
X148501000Y-64420439D01*
X148501000Y-64012599D01*
X148501849Y-64011328D01*
X148559000Y-63724012D01*
X148559000Y-63724008D01*
X148578296Y-63627001D01*
X148559000Y-63529994D01*
X148559000Y-51430930D01*
X148573490Y-51430930D01*
X148821255Y-51381647D01*
X149031299Y-51241299D01*
X149171647Y-51031255D01*
X149220930Y-50783490D01*
X149220930Y-48784510D01*
X149171647Y-48536745D01*
X149031299Y-48326701D01*
X148821255Y-48186353D01*
X148573490Y-48137070D01*
X146574510Y-48137070D01*
X146326745Y-48186353D01*
X146116701Y-48326701D01*
X145976353Y-48536745D01*
X145927070Y-48784510D01*
X145927070Y-49201959D01*
X145784654Y-48858136D01*
X145324864Y-48398346D01*
X144724120Y-48149510D01*
X144073880Y-48149510D01*
X143473136Y-48398346D01*
X143013346Y-48858136D01*
X142817405Y-49331180D01*
X142642965Y-48910042D01*
X142376163Y-48811443D01*
X141403605Y-49784000D01*
X142376163Y-50756557D01*
X142642965Y-50657958D01*
X142807919Y-50213920D01*
X143013346Y-50709864D01*
X143473136Y-51169654D01*
X144073880Y-51418490D01*
X144259490Y-51418490D01*
X145573000Y-52732000D01*
X145573000Y-53105740D01*
X145420546Y-52953286D01*
X144922526Y-52747000D01*
X144383474Y-52747000D01*
X143885454Y-52953286D01*
X143504286Y-53334454D01*
X143383000Y-53627265D01*
X143261714Y-53334454D01*
X142880546Y-52953286D01*
X142382526Y-52747000D01*
X141843474Y-52747000D01*
X141345454Y-52953286D01*
X140964286Y-53334454D01*
X140843000Y-53627265D01*
X140721714Y-53334454D01*
X140340546Y-52953286D01*
X139842526Y-52747000D01*
X139303474Y-52747000D01*
X138805454Y-52953286D01*
X138424286Y-53334454D01*
X138218000Y-53832474D01*
X138218000Y-54063999D01*
X137999090Y-54282910D01*
X137991778Y-54129546D01*
X137825864Y-53728995D01*
X137579745Y-53654861D01*
X136751605Y-54483000D01*
X136765748Y-54497142D01*
X136586142Y-54676748D01*
X136572000Y-54662605D01*
X135743861Y-55490745D01*
X135817995Y-55736864D01*
X136355223Y-55929965D01*
X136682127Y-55914379D01*
X136663704Y-56007000D01*
X136683001Y-56104013D01*
X136683001Y-59066391D01*
X136668129Y-59081263D01*
X136618617Y-58855836D01*
X136153964Y-58696193D01*
X135663587Y-58726518D01*
X135351383Y-58855836D01*
X135301870Y-59081265D01*
X135985000Y-59764395D01*
X135999143Y-59750253D01*
X136178748Y-59929858D01*
X136164605Y-59944000D01*
X136178748Y-59958143D01*
X135999143Y-60137748D01*
X135985000Y-60123605D01*
X135301870Y-60806735D01*
X135351383Y-61032164D01*
X135816036Y-61191807D01*
X136306413Y-61161482D01*
X136618617Y-61032164D01*
X136668129Y-60806737D01*
X136683001Y-60821609D01*
X136683000Y-64189474D01*
X136513654Y-63780636D01*
X136053864Y-63320846D01*
X135453120Y-63072010D01*
X134802880Y-63072010D01*
X134202136Y-63320846D01*
X133742346Y-63780636D01*
X133540500Y-64267936D01*
X133338654Y-63780636D01*
X132878864Y-63320846D01*
X132278120Y-63072010D01*
X131711511Y-63072010D01*
X129646111Y-61006610D01*
X129705000Y-60864439D01*
X129705000Y-60293561D01*
X129486534Y-59766138D01*
X129082862Y-59362466D01*
X128555439Y-59144000D01*
X128228001Y-59144000D01*
X125987098Y-56903098D01*
X125932145Y-56820855D01*
X125606328Y-56603151D01*
X125319012Y-56546000D01*
X125319008Y-56546000D01*
X125222000Y-56526704D01*
X125124992Y-56546000D01*
X123282000Y-56546000D01*
X123793468Y-56034532D01*
X123875709Y-55979581D01*
X123930660Y-55897341D01*
X123930662Y-55897339D01*
X124093413Y-55653764D01*
X124099598Y-55622672D01*
X124150564Y-55366448D01*
X124150564Y-55366445D01*
X124169860Y-55269437D01*
X124150564Y-55172429D01*
X124150564Y-54043960D01*
X124282138Y-54175534D01*
X124809561Y-54394000D01*
X125380439Y-54394000D01*
X125907862Y-54175534D01*
X126139396Y-53944000D01*
X127202297Y-53944000D01*
X127235423Y-53993577D01*
X127710091Y-54310740D01*
X128128667Y-54394000D01*
X128312000Y-54394000D01*
X129028902Y-55110902D01*
X129083855Y-55193145D01*
X129409672Y-55410849D01*
X129696988Y-55468000D01*
X129696992Y-55468000D01*
X129793999Y-55487296D01*
X129891006Y-55468000D01*
X130460000Y-55468000D01*
X130460001Y-57306987D01*
X130440704Y-57404000D01*
X130517151Y-57788327D01*
X130679902Y-58031902D01*
X130679905Y-58031905D01*
X130734856Y-58114145D01*
X130817096Y-58169096D01*
X132750000Y-60102000D01*
X132750000Y-60189657D01*
X132938018Y-60643571D01*
X133285429Y-60990982D01*
X133739343Y-61179000D01*
X134230657Y-61179000D01*
X134684571Y-60990982D01*
X135031982Y-60643571D01*
X135045753Y-60610325D01*
X135122265Y-60627130D01*
X135805395Y-59944000D01*
X135122265Y-59260870D01*
X135045753Y-59277675D01*
X135031982Y-59244429D01*
X134684571Y-58897018D01*
X134230657Y-58709000D01*
X134143000Y-58709000D01*
X132430000Y-56996000D01*
X132430000Y-55654396D01*
X132788534Y-55295862D01*
X133007000Y-54768439D01*
X133007000Y-54266223D01*
X135125035Y-54266223D01*
X135152222Y-54836454D01*
X135318136Y-55237005D01*
X135564255Y-55311139D01*
X136392395Y-54483000D01*
X135564255Y-53654861D01*
X135318136Y-53728995D01*
X135125035Y-54266223D01*
X133007000Y-54266223D01*
X133007000Y-54197561D01*
X132788534Y-53670138D01*
X132593651Y-53475255D01*
X135743861Y-53475255D01*
X136572000Y-54303395D01*
X137400139Y-53475255D01*
X137326005Y-53229136D01*
X136788777Y-53036035D01*
X136218546Y-53063222D01*
X135817995Y-53229136D01*
X135743861Y-53475255D01*
X132593651Y-53475255D01*
X132384862Y-53266466D01*
X132303000Y-53232558D01*
X132303000Y-51589000D01*
X132461070Y-51430930D01*
X133714490Y-51430930D01*
X133962255Y-51381647D01*
X134172299Y-51241299D01*
X134312647Y-51031255D01*
X134331561Y-50936163D01*
X135552443Y-50936163D01*
X135651042Y-51202965D01*
X136260582Y-51429401D01*
X136910377Y-51405341D01*
X137398958Y-51202965D01*
X137497557Y-50936163D01*
X140251443Y-50936163D01*
X140350042Y-51202965D01*
X140959582Y-51429401D01*
X141609377Y-51405341D01*
X142097958Y-51202965D01*
X142196557Y-50936163D01*
X141224000Y-49963605D01*
X140251443Y-50936163D01*
X137497557Y-50936163D01*
X136525000Y-49963605D01*
X135552443Y-50936163D01*
X134331561Y-50936163D01*
X134361930Y-50783490D01*
X134361930Y-49519582D01*
X134879599Y-49519582D01*
X134903659Y-50169377D01*
X135106035Y-50657958D01*
X135372837Y-50756557D01*
X136345395Y-49784000D01*
X136704605Y-49784000D01*
X137677163Y-50756557D01*
X137943965Y-50657958D01*
X138170401Y-50048418D01*
X138150820Y-49519582D01*
X139578599Y-49519582D01*
X139602659Y-50169377D01*
X139805035Y-50657958D01*
X140071837Y-50756557D01*
X141044395Y-49784000D01*
X140071837Y-48811443D01*
X139805035Y-48910042D01*
X139578599Y-49519582D01*
X138150820Y-49519582D01*
X138146341Y-49398623D01*
X137943965Y-48910042D01*
X137677163Y-48811443D01*
X136704605Y-49784000D01*
X136345395Y-49784000D01*
X135372837Y-48811443D01*
X135106035Y-48910042D01*
X134879599Y-49519582D01*
X134361930Y-49519582D01*
X134361930Y-48784510D01*
X134331562Y-48631837D01*
X135552443Y-48631837D01*
X136525000Y-49604395D01*
X137497557Y-48631837D01*
X140251443Y-48631837D01*
X141224000Y-49604395D01*
X142196557Y-48631837D01*
X142097958Y-48365035D01*
X141488418Y-48138599D01*
X140838623Y-48162659D01*
X140350042Y-48365035D01*
X140251443Y-48631837D01*
X137497557Y-48631837D01*
X137398958Y-48365035D01*
X136789418Y-48138599D01*
X136139623Y-48162659D01*
X135651042Y-48365035D01*
X135552443Y-48631837D01*
X134331562Y-48631837D01*
X134312647Y-48536745D01*
X134172299Y-48326701D01*
X133962255Y-48186353D01*
X133714490Y-48137070D01*
X131715510Y-48137070D01*
X131467745Y-48186353D01*
X131257701Y-48326701D01*
X131117353Y-48536745D01*
X131068070Y-48784510D01*
X131068070Y-50037930D01*
X130690096Y-50415904D01*
X130607856Y-50470855D01*
X130552905Y-50553095D01*
X130552902Y-50553098D01*
X130390151Y-50796673D01*
X130313704Y-51181000D01*
X130333001Y-51278013D01*
X130333000Y-53498000D01*
X130202000Y-53498000D01*
X129721480Y-53017480D01*
X129733113Y-52959000D01*
X129621740Y-52399091D01*
X129304577Y-51924423D01*
X128829909Y-51607260D01*
X128411333Y-51524000D01*
X128128667Y-51524000D01*
X127710091Y-51607260D01*
X127235423Y-51924423D01*
X127202297Y-51974000D01*
X126139396Y-51974000D01*
X125907862Y-51742466D01*
X125380439Y-51524000D01*
X124809561Y-51524000D01*
X124282138Y-51742466D01*
X124150564Y-51874040D01*
X124150564Y-51418490D01*
X124404120Y-51418490D01*
X125004864Y-51169654D01*
X125238355Y-50936163D01*
X126281443Y-50936163D01*
X126380042Y-51202965D01*
X126989582Y-51429401D01*
X127639377Y-51405341D01*
X128127958Y-51202965D01*
X128226557Y-50936163D01*
X127254000Y-49963605D01*
X126281443Y-50936163D01*
X125238355Y-50936163D01*
X125464654Y-50709864D01*
X125660595Y-50236820D01*
X125835035Y-50657958D01*
X126101837Y-50756557D01*
X127074395Y-49784000D01*
X127433605Y-49784000D01*
X128406163Y-50756557D01*
X128672965Y-50657958D01*
X128899401Y-50048418D01*
X128875341Y-49398623D01*
X128672965Y-48910042D01*
X128406163Y-48811443D01*
X127433605Y-49784000D01*
X127074395Y-49784000D01*
X126101837Y-48811443D01*
X125835035Y-48910042D01*
X125670081Y-49354080D01*
X125464654Y-48858136D01*
X125238355Y-48631837D01*
X126281443Y-48631837D01*
X127254000Y-49604395D01*
X128226557Y-48631837D01*
X128127958Y-48365035D01*
X127518418Y-48138599D01*
X126868623Y-48162659D01*
X126380042Y-48365035D01*
X126281443Y-48631837D01*
X125238355Y-48631837D01*
X125004864Y-48398346D01*
X124404120Y-48149510D01*
X123753880Y-48149510D01*
X123153136Y-48398346D01*
X122693346Y-48858136D01*
X122550930Y-49201959D01*
X122550930Y-48784510D01*
X122501647Y-48536745D01*
X122361299Y-48326701D01*
X122151255Y-48186353D01*
X121903490Y-48137070D01*
X119904510Y-48137070D01*
X119656745Y-48186353D01*
X119446701Y-48326701D01*
X119306353Y-48536745D01*
X119257070Y-48784510D01*
X119257070Y-50783490D01*
X119306353Y-51031255D01*
X119446701Y-51241299D01*
X119656745Y-51381647D01*
X119904510Y-51430930D01*
X119919000Y-51430930D01*
X119919001Y-53042374D01*
X119723000Y-53515561D01*
X119723000Y-54086439D01*
X119941466Y-54613862D01*
X120345138Y-55017534D01*
X120481656Y-55074082D01*
X120456172Y-55079151D01*
X120212597Y-55241902D01*
X120212595Y-55241904D01*
X120130355Y-55296855D01*
X120075404Y-55379095D01*
X119253000Y-56201500D01*
X119253000Y-47781980D01*
X119331490Y-47625000D01*
X149606000Y-47625000D01*
X149606000Y-79502000D01*
G36*
X123571000Y-70485000D02*
X123591000Y-70485000D01*
X123591000Y-70739000D01*
X123571000Y-70739000D01*
X123571000Y-71680731D01*
X123761609Y-71805462D01*
X124063327Y-71680497D01*
X124425080Y-71362156D01*
X124637472Y-70929611D01*
X124605744Y-70880744D01*
X127162000Y-73437000D01*
X123661501Y-73437000D01*
X123159000Y-72934500D01*
X123159000Y-71784123D01*
X123317000Y-71680731D01*
X123317000Y-70739000D01*
X123297000Y-70739000D01*
X123297000Y-70485000D01*
X123317000Y-70485000D01*
X123317000Y-70465000D01*
X123571000Y-70465000D01*
X123571000Y-70485000D01*
X123571000Y-70485000D01*
G37*
X123571000Y-70485000D02*
X123591000Y-70485000D01*
X123591000Y-70739000D01*
X123571000Y-70739000D01*
X123571000Y-71680731D01*
X123761609Y-71805462D01*
X124063327Y-71680497D01*
X124425080Y-71362156D01*
X124637472Y-70929611D01*
X124605744Y-70880744D01*
X127162000Y-73437000D01*
X123661501Y-73437000D01*
X123159000Y-72934500D01*
X123159000Y-71784123D01*
X123317000Y-71680731D01*
X123317000Y-70739000D01*
X123297000Y-70739000D01*
X123297000Y-70485000D01*
X123317000Y-70485000D01*
X123317000Y-70465000D01*
X123571000Y-70465000D01*
X123571000Y-70485000D01*
G36*
X143504286Y-54869546D02*
X143885454Y-55250714D01*
X144383474Y-55457000D01*
X144922526Y-55457000D01*
X145420546Y-55250714D01*
X145573001Y-55098259D01*
X145573001Y-56170499D01*
X143437440Y-58306060D01*
X142583000Y-58306060D01*
X142335235Y-58355343D01*
X142125191Y-58495691D01*
X141984843Y-58705735D01*
X141938307Y-58939687D01*
X141890745Y-58925361D01*
X141062605Y-59753500D01*
X141890745Y-60581639D01*
X141938307Y-60567313D01*
X141984843Y-60801265D01*
X142125191Y-61011309D01*
X142335235Y-61151657D01*
X142398000Y-61164142D01*
X142398001Y-64515334D01*
X142188691Y-64655191D01*
X142048343Y-64865235D01*
X142001807Y-65099187D01*
X141954245Y-65084861D01*
X141126105Y-65913000D01*
X141954245Y-66741139D01*
X142001807Y-66726813D01*
X142048343Y-66960765D01*
X142188691Y-67170809D01*
X142398735Y-67311157D01*
X142646500Y-67360440D01*
X144246500Y-67360440D01*
X144494265Y-67311157D01*
X144704309Y-67170809D01*
X144844657Y-66960765D01*
X144893940Y-66713000D01*
X144893940Y-65113000D01*
X144844657Y-64865235D01*
X144704309Y-64655191D01*
X144494265Y-64514843D01*
X144368000Y-64489728D01*
X144368000Y-61164142D01*
X144430765Y-61151657D01*
X144640809Y-61011309D01*
X144781157Y-60801265D01*
X144830440Y-60553500D01*
X144830440Y-59699060D01*
X146589001Y-57940499D01*
X146589001Y-62779347D01*
X146253138Y-62918466D01*
X145849466Y-63322138D01*
X145631000Y-63849561D01*
X145631000Y-64420439D01*
X145849466Y-64947862D01*
X146081001Y-65179397D01*
X146081000Y-66394000D01*
X143102000Y-69373000D01*
X137518642Y-69373000D01*
X137544098Y-69334902D01*
X139438905Y-67440096D01*
X139521145Y-67385145D01*
X139576096Y-67302905D01*
X139576098Y-67302903D01*
X139738849Y-67059328D01*
X139754307Y-66981615D01*
X139766414Y-66920745D01*
X140118361Y-66920745D01*
X140192495Y-67166864D01*
X140729723Y-67359965D01*
X141299954Y-67332778D01*
X141700505Y-67166864D01*
X141774639Y-66920745D01*
X140946500Y-66092605D01*
X140118361Y-66920745D01*
X139766414Y-66920745D01*
X139796000Y-66772012D01*
X139796000Y-66772008D01*
X139809863Y-66702315D01*
X139938755Y-66741139D01*
X140766895Y-65913000D01*
X139938755Y-65084861D01*
X139796000Y-65127861D01*
X139796000Y-64905255D01*
X140118361Y-64905255D01*
X140946500Y-65733395D01*
X141774639Y-64905255D01*
X141700505Y-64659136D01*
X141163277Y-64466035D01*
X140593046Y-64493222D01*
X140192495Y-64659136D01*
X140118361Y-64905255D01*
X139796000Y-64905255D01*
X139796000Y-60761245D01*
X140054861Y-60761245D01*
X140128995Y-61007364D01*
X140666223Y-61200465D01*
X141236454Y-61173278D01*
X141637005Y-61007364D01*
X141711139Y-60761245D01*
X140883000Y-59933105D01*
X140054861Y-60761245D01*
X139796000Y-60761245D01*
X139796000Y-60557766D01*
X139875255Y-60581639D01*
X140703395Y-59753500D01*
X139875255Y-58925361D01*
X139796000Y-58949234D01*
X139796000Y-58745755D01*
X140054861Y-58745755D01*
X140883000Y-59573895D01*
X141711139Y-58745755D01*
X141637005Y-58499636D01*
X141099777Y-58306535D01*
X140529546Y-58333722D01*
X140128995Y-58499636D01*
X140054861Y-58745755D01*
X139796000Y-58745755D01*
X139796000Y-57812000D01*
X142151000Y-55457000D01*
X142382526Y-55457000D01*
X142880546Y-55250714D01*
X143261714Y-54869546D01*
X143383000Y-54576735D01*
X143504286Y-54869546D01*
X143504286Y-54869546D01*
G37*
X143504286Y-54869546D02*
X143885454Y-55250714D01*
X144383474Y-55457000D01*
X144922526Y-55457000D01*
X145420546Y-55250714D01*
X145573001Y-55098259D01*
X145573001Y-56170499D01*
X143437440Y-58306060D01*
X142583000Y-58306060D01*
X142335235Y-58355343D01*
X142125191Y-58495691D01*
X141984843Y-58705735D01*
X141938307Y-58939687D01*
X141890745Y-58925361D01*
X141062605Y-59753500D01*
X141890745Y-60581639D01*
X141938307Y-60567313D01*
X141984843Y-60801265D01*
X142125191Y-61011309D01*
X142335235Y-61151657D01*
X142398000Y-61164142D01*
X142398001Y-64515334D01*
X142188691Y-64655191D01*
X142048343Y-64865235D01*
X142001807Y-65099187D01*
X141954245Y-65084861D01*
X141126105Y-65913000D01*
X141954245Y-66741139D01*
X142001807Y-66726813D01*
X142048343Y-66960765D01*
X142188691Y-67170809D01*
X142398735Y-67311157D01*
X142646500Y-67360440D01*
X144246500Y-67360440D01*
X144494265Y-67311157D01*
X144704309Y-67170809D01*
X144844657Y-66960765D01*
X144893940Y-66713000D01*
X144893940Y-65113000D01*
X144844657Y-64865235D01*
X144704309Y-64655191D01*
X144494265Y-64514843D01*
X144368000Y-64489728D01*
X144368000Y-61164142D01*
X144430765Y-61151657D01*
X144640809Y-61011309D01*
X144781157Y-60801265D01*
X144830440Y-60553500D01*
X144830440Y-59699060D01*
X146589001Y-57940499D01*
X146589001Y-62779347D01*
X146253138Y-62918466D01*
X145849466Y-63322138D01*
X145631000Y-63849561D01*
X145631000Y-64420439D01*
X145849466Y-64947862D01*
X146081001Y-65179397D01*
X146081000Y-66394000D01*
X143102000Y-69373000D01*
X137518642Y-69373000D01*
X137544098Y-69334902D01*
X139438905Y-67440096D01*
X139521145Y-67385145D01*
X139576096Y-67302905D01*
X139576098Y-67302903D01*
X139738849Y-67059328D01*
X139754307Y-66981615D01*
X139766414Y-66920745D01*
X140118361Y-66920745D01*
X140192495Y-67166864D01*
X140729723Y-67359965D01*
X141299954Y-67332778D01*
X141700505Y-67166864D01*
X141774639Y-66920745D01*
X140946500Y-66092605D01*
X140118361Y-66920745D01*
X139766414Y-66920745D01*
X139796000Y-66772012D01*
X139796000Y-66772008D01*
X139809863Y-66702315D01*
X139938755Y-66741139D01*
X140766895Y-65913000D01*
X139938755Y-65084861D01*
X139796000Y-65127861D01*
X139796000Y-64905255D01*
X140118361Y-64905255D01*
X140946500Y-65733395D01*
X141774639Y-64905255D01*
X141700505Y-64659136D01*
X141163277Y-64466035D01*
X140593046Y-64493222D01*
X140192495Y-64659136D01*
X140118361Y-64905255D01*
X139796000Y-64905255D01*
X139796000Y-60761245D01*
X140054861Y-60761245D01*
X140128995Y-61007364D01*
X140666223Y-61200465D01*
X141236454Y-61173278D01*
X141637005Y-61007364D01*
X141711139Y-60761245D01*
X140883000Y-59933105D01*
X140054861Y-60761245D01*
X139796000Y-60761245D01*
X139796000Y-60557766D01*
X139875255Y-60581639D01*
X140703395Y-59753500D01*
X139875255Y-58925361D01*
X139796000Y-58949234D01*
X139796000Y-58745755D01*
X140054861Y-58745755D01*
X140883000Y-59573895D01*
X141711139Y-58745755D01*
X141637005Y-58499636D01*
X141099777Y-58306535D01*
X140529546Y-58333722D01*
X140128995Y-58499636D01*
X140054861Y-58745755D01*
X139796000Y-58745755D01*
X139796000Y-57812000D01*
X142151000Y-55457000D01*
X142382526Y-55457000D01*
X142880546Y-55250714D01*
X143261714Y-54869546D01*
X143383000Y-54576735D01*
X143504286Y-54869546D01*
G04 #@! TD*
M02*
