G04 #@! TF.GenerationSoftware,KiCad,Pcbnew,5.0.2+dfsg1-1~bpo9+1*
G04 #@! TF.CreationDate,2020-10-14T23:05:51+08:00*
G04 #@! TF.ProjectId,BC108 NPN Fuzz Face,42433130-3820-44e5-904e-2046757a7a20,rev?*
G04 #@! TF.SameCoordinates,Original*
G04 #@! TF.FileFunction,Legend,Top*
G04 #@! TF.FilePolarity,Positive*
%FSLAX46Y46*%
G04 Gerber Fmt 4.6, Leading zero omitted, Abs format (unit mm)*
G04 Created by KiCad (PCBNEW 5.0.2+dfsg1-1~bpo9+1) date Wednesday, 14 October, 2020 11:05:51 PM PST*
%MOMM*%
%LPD*%
G01*
G04 APERTURE LIST*
%ADD10C,0.150000*%
%ADD11C,0.200000*%
%ADD12C,0.153000*%
%ADD13C,0.120000*%
G04 APERTURE END LIST*
D10*
X131127500Y-78803500D02*
X139255500Y-78803500D01*
D11*
X127317500Y-66167000D02*
X136588500Y-66167000D01*
X127254000Y-63182500D02*
X136652000Y-63182500D01*
X143383000Y-51308000D02*
X149098000Y-51308000D01*
X139700000Y-51308000D02*
X141605000Y-51308000D01*
X139700000Y-48260000D02*
X149098000Y-48260000D01*
X119507000Y-51308000D02*
X128714500Y-51308000D01*
X119443500Y-48260000D02*
X128714500Y-48260000D01*
D10*
X131509000Y-76192071D02*
X131651857Y-76239690D01*
X131699476Y-76287309D01*
X131747095Y-76382547D01*
X131747095Y-76525404D01*
X131699476Y-76620642D01*
X131651857Y-76668261D01*
X131556619Y-76715880D01*
X131175666Y-76715880D01*
X131175666Y-75715880D01*
X131509000Y-75715880D01*
X131604238Y-75763500D01*
X131651857Y-75811119D01*
X131699476Y-75906357D01*
X131699476Y-76001595D01*
X131651857Y-76096833D01*
X131604238Y-76144452D01*
X131509000Y-76192071D01*
X131175666Y-76192071D01*
X132556619Y-76668261D02*
X132461380Y-76715880D01*
X132270904Y-76715880D01*
X132175666Y-76668261D01*
X132128047Y-76573023D01*
X132128047Y-76192071D01*
X132175666Y-76096833D01*
X132270904Y-76049214D01*
X132461380Y-76049214D01*
X132556619Y-76096833D01*
X132604238Y-76192071D01*
X132604238Y-76287309D01*
X132128047Y-76382547D01*
X133032809Y-76049214D02*
X133032809Y-76715880D01*
X133032809Y-76144452D02*
X133080428Y-76096833D01*
X133175666Y-76049214D01*
X133318523Y-76049214D01*
X133413761Y-76096833D01*
X133461380Y-76192071D01*
X133461380Y-76715880D01*
X133937571Y-76049214D02*
X133937571Y-76906357D01*
X133889952Y-77001595D01*
X133794714Y-77049214D01*
X133747095Y-77049214D01*
X133937571Y-75715880D02*
X133889952Y-75763500D01*
X133937571Y-75811119D01*
X133985190Y-75763500D01*
X133937571Y-75715880D01*
X133937571Y-75811119D01*
X134413761Y-76715880D02*
X134413761Y-76049214D01*
X134413761Y-75715880D02*
X134366142Y-75763500D01*
X134413761Y-75811119D01*
X134461380Y-75763500D01*
X134413761Y-75715880D01*
X134413761Y-75811119D01*
X135270904Y-76668261D02*
X135175666Y-76715880D01*
X134985190Y-76715880D01*
X134889952Y-76668261D01*
X134842333Y-76573023D01*
X134842333Y-76192071D01*
X134889952Y-76096833D01*
X134985190Y-76049214D01*
X135175666Y-76049214D01*
X135270904Y-76096833D01*
X135318523Y-76192071D01*
X135318523Y-76287309D01*
X134842333Y-76382547D01*
X136794714Y-75715880D02*
X136794714Y-76430166D01*
X136747095Y-76573023D01*
X136651857Y-76668261D01*
X136509000Y-76715880D01*
X136413761Y-76715880D01*
X137270904Y-76715880D02*
X137270904Y-76049214D01*
X137270904Y-75715880D02*
X137223285Y-75763500D01*
X137270904Y-75811119D01*
X137318523Y-75763500D01*
X137270904Y-75715880D01*
X137270904Y-75811119D01*
X138175666Y-76715880D02*
X138175666Y-76192071D01*
X138128047Y-76096833D01*
X138032809Y-76049214D01*
X137842333Y-76049214D01*
X137747095Y-76096833D01*
X138175666Y-76668261D02*
X138080428Y-76715880D01*
X137842333Y-76715880D01*
X137747095Y-76668261D01*
X137699476Y-76573023D01*
X137699476Y-76477785D01*
X137747095Y-76382547D01*
X137842333Y-76334928D01*
X138080428Y-76334928D01*
X138175666Y-76287309D01*
X138794714Y-76715880D02*
X138699476Y-76668261D01*
X138651857Y-76620642D01*
X138604238Y-76525404D01*
X138604238Y-76239690D01*
X138651857Y-76144452D01*
X138699476Y-76096833D01*
X138794714Y-76049214D01*
X138937571Y-76049214D01*
X139032809Y-76096833D01*
X139080428Y-76144452D01*
X139128047Y-76239690D01*
X139128047Y-76525404D01*
X139080428Y-76620642D01*
X139032809Y-76668261D01*
X138937571Y-76715880D01*
X138794714Y-76715880D01*
X124730142Y-77509714D02*
X124968238Y-78176380D01*
X125206333Y-77509714D01*
X126111095Y-78176380D02*
X125539666Y-78176380D01*
X125825380Y-78176380D02*
X125825380Y-77176380D01*
X125730142Y-77319238D01*
X125634904Y-77414476D01*
X125539666Y-77462095D01*
X126539666Y-78081142D02*
X126587285Y-78128761D01*
X126539666Y-78176380D01*
X126492047Y-78128761D01*
X126539666Y-78081142D01*
X126539666Y-78176380D01*
X127206333Y-77176380D02*
X127301571Y-77176380D01*
X127396809Y-77224000D01*
X127444428Y-77271619D01*
X127492047Y-77366857D01*
X127539666Y-77557333D01*
X127539666Y-77795428D01*
X127492047Y-77985904D01*
X127444428Y-78081142D01*
X127396809Y-78128761D01*
X127301571Y-78176380D01*
X127206333Y-78176380D01*
X127111095Y-78128761D01*
X127063476Y-78081142D01*
X127015857Y-77985904D01*
X126968238Y-77795428D01*
X126968238Y-77557333D01*
X127015857Y-77366857D01*
X127063476Y-77271619D01*
X127111095Y-77224000D01*
X127206333Y-77176380D01*
X127968238Y-78081142D02*
X128015857Y-78128761D01*
X127968238Y-78176380D01*
X127920619Y-78128761D01*
X127968238Y-78081142D01*
X127968238Y-78176380D01*
X128634904Y-77176380D02*
X128730142Y-77176380D01*
X128825380Y-77224000D01*
X128873000Y-77271619D01*
X128920619Y-77366857D01*
X128968238Y-77557333D01*
X128968238Y-77795428D01*
X128920619Y-77985904D01*
X128873000Y-78081142D01*
X128825380Y-78128761D01*
X128730142Y-78176380D01*
X128634904Y-78176380D01*
X128539666Y-78128761D01*
X128492047Y-78081142D01*
X128444428Y-77985904D01*
X128396809Y-77795428D01*
X128396809Y-77557333D01*
X128444428Y-77366857D01*
X128492047Y-77271619D01*
X128539666Y-77224000D01*
X128634904Y-77176380D01*
X124603190Y-76255571D02*
X124269857Y-76255571D01*
X124269857Y-76779380D02*
X124269857Y-75779380D01*
X124746047Y-75779380D01*
X125127000Y-75779380D02*
X125127000Y-76588904D01*
X125174619Y-76684142D01*
X125222238Y-76731761D01*
X125317476Y-76779380D01*
X125507952Y-76779380D01*
X125603190Y-76731761D01*
X125650809Y-76684142D01*
X125698428Y-76588904D01*
X125698428Y-75779380D01*
X126079380Y-75779380D02*
X126746047Y-75779380D01*
X126079380Y-76779380D01*
X126746047Y-76779380D01*
X127031761Y-75779380D02*
X127698428Y-75779380D01*
X127031761Y-76779380D01*
X127698428Y-76779380D01*
X127984142Y-75779380D02*
X128650809Y-75779380D01*
X127984142Y-76779380D01*
X128650809Y-76779380D01*
X128936523Y-75779380D02*
X129603190Y-75779380D01*
X128936523Y-76779380D01*
X129603190Y-76779380D01*
X129984142Y-76684142D02*
X130031761Y-76731761D01*
X129984142Y-76779380D01*
X129936523Y-76731761D01*
X129984142Y-76684142D01*
X129984142Y-76779380D01*
X129984142Y-76398428D02*
X129936523Y-75827000D01*
X129984142Y-75779380D01*
X130031761Y-75827000D01*
X129984142Y-76398428D01*
X129984142Y-75779380D01*
D12*
X135755142Y-47125000D02*
X135659904Y-47077380D01*
X135517047Y-47077380D01*
X135374190Y-47125000D01*
X135278952Y-47220238D01*
X135231333Y-47315476D01*
X135183714Y-47505952D01*
X135183714Y-47648809D01*
X135231333Y-47839285D01*
X135278952Y-47934523D01*
X135374190Y-48029761D01*
X135517047Y-48077380D01*
X135612285Y-48077380D01*
X135755142Y-48029761D01*
X135802761Y-47982142D01*
X135802761Y-47648809D01*
X135612285Y-47648809D01*
X136231333Y-47410714D02*
X136231333Y-48077380D01*
X136231333Y-47505952D02*
X136278952Y-47458333D01*
X136374190Y-47410714D01*
X136517047Y-47410714D01*
X136612285Y-47458333D01*
X136659904Y-47553571D01*
X136659904Y-48077380D01*
X137564666Y-48077380D02*
X137564666Y-47077380D01*
X137564666Y-48029761D02*
X137469428Y-48077380D01*
X137278952Y-48077380D01*
X137183714Y-48029761D01*
X137136095Y-47982142D01*
X137088476Y-47886904D01*
X137088476Y-47601190D01*
X137136095Y-47505952D01*
X137183714Y-47458333D01*
X137278952Y-47410714D01*
X137469428Y-47410714D01*
X137564666Y-47458333D01*
D13*
G04 #@! TO.C,C1*
X144753000Y-59753500D02*
G75*
G03X144753000Y-59753500I-2620000J0D01*
G01*
X142133000Y-62333500D02*
X142133000Y-57173500D01*
X142093000Y-62333500D02*
X142093000Y-57173500D01*
X142053000Y-62332500D02*
X142053000Y-57174500D01*
X142013000Y-62331500D02*
X142013000Y-57175500D01*
X141973000Y-62329500D02*
X141973000Y-57177500D01*
X141933000Y-62326500D02*
X141933000Y-57180500D01*
X141893000Y-62322500D02*
X141893000Y-60793500D01*
X141893000Y-58713500D02*
X141893000Y-57184500D01*
X141853000Y-62318500D02*
X141853000Y-60793500D01*
X141853000Y-58713500D02*
X141853000Y-57188500D01*
X141813000Y-62314500D02*
X141813000Y-60793500D01*
X141813000Y-58713500D02*
X141813000Y-57192500D01*
X141773000Y-62309500D02*
X141773000Y-60793500D01*
X141773000Y-58713500D02*
X141773000Y-57197500D01*
X141733000Y-62303500D02*
X141733000Y-60793500D01*
X141733000Y-58713500D02*
X141733000Y-57203500D01*
X141693000Y-62296500D02*
X141693000Y-60793500D01*
X141693000Y-58713500D02*
X141693000Y-57210500D01*
X141653000Y-62289500D02*
X141653000Y-60793500D01*
X141653000Y-58713500D02*
X141653000Y-57217500D01*
X141613000Y-62281500D02*
X141613000Y-60793500D01*
X141613000Y-58713500D02*
X141613000Y-57225500D01*
X141573000Y-62273500D02*
X141573000Y-60793500D01*
X141573000Y-58713500D02*
X141573000Y-57233500D01*
X141533000Y-62264500D02*
X141533000Y-60793500D01*
X141533000Y-58713500D02*
X141533000Y-57242500D01*
X141493000Y-62254500D02*
X141493000Y-60793500D01*
X141493000Y-58713500D02*
X141493000Y-57252500D01*
X141453000Y-62244500D02*
X141453000Y-60793500D01*
X141453000Y-58713500D02*
X141453000Y-57262500D01*
X141412000Y-62233500D02*
X141412000Y-60793500D01*
X141412000Y-58713500D02*
X141412000Y-57273500D01*
X141372000Y-62221500D02*
X141372000Y-60793500D01*
X141372000Y-58713500D02*
X141372000Y-57285500D01*
X141332000Y-62208500D02*
X141332000Y-60793500D01*
X141332000Y-58713500D02*
X141332000Y-57298500D01*
X141292000Y-62195500D02*
X141292000Y-60793500D01*
X141292000Y-58713500D02*
X141292000Y-57311500D01*
X141252000Y-62181500D02*
X141252000Y-60793500D01*
X141252000Y-58713500D02*
X141252000Y-57325500D01*
X141212000Y-62167500D02*
X141212000Y-60793500D01*
X141212000Y-58713500D02*
X141212000Y-57339500D01*
X141172000Y-62151500D02*
X141172000Y-60793500D01*
X141172000Y-58713500D02*
X141172000Y-57355500D01*
X141132000Y-62135500D02*
X141132000Y-60793500D01*
X141132000Y-58713500D02*
X141132000Y-57371500D01*
X141092000Y-62118500D02*
X141092000Y-60793500D01*
X141092000Y-58713500D02*
X141092000Y-57388500D01*
X141052000Y-62101500D02*
X141052000Y-60793500D01*
X141052000Y-58713500D02*
X141052000Y-57405500D01*
X141012000Y-62082500D02*
X141012000Y-60793500D01*
X141012000Y-58713500D02*
X141012000Y-57424500D01*
X140972000Y-62063500D02*
X140972000Y-60793500D01*
X140972000Y-58713500D02*
X140972000Y-57443500D01*
X140932000Y-62043500D02*
X140932000Y-60793500D01*
X140932000Y-58713500D02*
X140932000Y-57463500D01*
X140892000Y-62021500D02*
X140892000Y-60793500D01*
X140892000Y-58713500D02*
X140892000Y-57485500D01*
X140852000Y-62000500D02*
X140852000Y-60793500D01*
X140852000Y-58713500D02*
X140852000Y-57506500D01*
X140812000Y-61977500D02*
X140812000Y-60793500D01*
X140812000Y-58713500D02*
X140812000Y-57529500D01*
X140772000Y-61953500D02*
X140772000Y-60793500D01*
X140772000Y-58713500D02*
X140772000Y-57553500D01*
X140732000Y-61928500D02*
X140732000Y-60793500D01*
X140732000Y-58713500D02*
X140732000Y-57578500D01*
X140692000Y-61902500D02*
X140692000Y-60793500D01*
X140692000Y-58713500D02*
X140692000Y-57604500D01*
X140652000Y-61875500D02*
X140652000Y-60793500D01*
X140652000Y-58713500D02*
X140652000Y-57631500D01*
X140612000Y-61848500D02*
X140612000Y-60793500D01*
X140612000Y-58713500D02*
X140612000Y-57658500D01*
X140572000Y-61818500D02*
X140572000Y-60793500D01*
X140572000Y-58713500D02*
X140572000Y-57688500D01*
X140532000Y-61788500D02*
X140532000Y-60793500D01*
X140532000Y-58713500D02*
X140532000Y-57718500D01*
X140492000Y-61757500D02*
X140492000Y-60793500D01*
X140492000Y-58713500D02*
X140492000Y-57749500D01*
X140452000Y-61724500D02*
X140452000Y-60793500D01*
X140452000Y-58713500D02*
X140452000Y-57782500D01*
X140412000Y-61690500D02*
X140412000Y-60793500D01*
X140412000Y-58713500D02*
X140412000Y-57816500D01*
X140372000Y-61654500D02*
X140372000Y-60793500D01*
X140372000Y-58713500D02*
X140372000Y-57852500D01*
X140332000Y-61617500D02*
X140332000Y-60793500D01*
X140332000Y-58713500D02*
X140332000Y-57889500D01*
X140292000Y-61579500D02*
X140292000Y-60793500D01*
X140292000Y-58713500D02*
X140292000Y-57927500D01*
X140252000Y-61538500D02*
X140252000Y-60793500D01*
X140252000Y-58713500D02*
X140252000Y-57968500D01*
X140212000Y-61496500D02*
X140212000Y-60793500D01*
X140212000Y-58713500D02*
X140212000Y-58010500D01*
X140172000Y-61452500D02*
X140172000Y-60793500D01*
X140172000Y-58713500D02*
X140172000Y-58054500D01*
X140132000Y-61406500D02*
X140132000Y-60793500D01*
X140132000Y-58713500D02*
X140132000Y-58100500D01*
X140092000Y-61358500D02*
X140092000Y-60793500D01*
X140092000Y-58713500D02*
X140092000Y-58148500D01*
X140052000Y-61307500D02*
X140052000Y-60793500D01*
X140052000Y-58713500D02*
X140052000Y-58199500D01*
X140012000Y-61253500D02*
X140012000Y-60793500D01*
X140012000Y-58713500D02*
X140012000Y-58253500D01*
X139972000Y-61196500D02*
X139972000Y-60793500D01*
X139972000Y-58713500D02*
X139972000Y-58310500D01*
X139932000Y-61136500D02*
X139932000Y-60793500D01*
X139932000Y-58713500D02*
X139932000Y-58370500D01*
X139892000Y-61072500D02*
X139892000Y-60793500D01*
X139892000Y-58713500D02*
X139892000Y-58434500D01*
X139852000Y-61004500D02*
X139852000Y-60793500D01*
X139852000Y-58713500D02*
X139852000Y-58502500D01*
X139812000Y-60931500D02*
X139812000Y-58575500D01*
X139772000Y-60851500D02*
X139772000Y-58655500D01*
X139732000Y-60764500D02*
X139732000Y-58742500D01*
X139692000Y-60668500D02*
X139692000Y-58838500D01*
X139652000Y-60558500D02*
X139652000Y-58948500D01*
X139612000Y-60430500D02*
X139612000Y-59076500D01*
X139572000Y-60271500D02*
X139572000Y-59235500D01*
X139532000Y-60037500D02*
X139532000Y-59469500D01*
X144937775Y-61228500D02*
X144437775Y-61228500D01*
X144687775Y-61478500D02*
X144687775Y-60978500D01*
G04 #@! TO.C,C2*
X119288000Y-59921000D02*
X119288000Y-52681000D01*
X123028000Y-59921000D02*
X123028000Y-52681000D01*
X119288000Y-59921000D02*
X123028000Y-59921000D01*
X119288000Y-52681000D02*
X123028000Y-52681000D01*
G04 #@! TO.C,C3*
X137605000Y-59944000D02*
G75*
G03X137605000Y-59944000I-2620000J0D01*
G01*
G04 #@! TO.C,C4*
X130452000Y-53113000D02*
X137692000Y-53113000D01*
X130452000Y-55853000D02*
X137692000Y-55853000D01*
X130452000Y-53113000D02*
X130452000Y-55853000D01*
X137692000Y-53113000D02*
X137692000Y-55853000D01*
G04 #@! TO.C,C5*
X139919225Y-72570000D02*
X139919225Y-73070000D01*
X139669225Y-72820000D02*
X140169225Y-72820000D01*
X145075000Y-74011000D02*
X145075000Y-74579000D01*
X145035000Y-73777000D02*
X145035000Y-74813000D01*
X144995000Y-73618000D02*
X144995000Y-74972000D01*
X144955000Y-73490000D02*
X144955000Y-75100000D01*
X144915000Y-73380000D02*
X144915000Y-75210000D01*
X144875000Y-73284000D02*
X144875000Y-75306000D01*
X144835000Y-73197000D02*
X144835000Y-75393000D01*
X144795000Y-73117000D02*
X144795000Y-75473000D01*
X144755000Y-75335000D02*
X144755000Y-75546000D01*
X144755000Y-73044000D02*
X144755000Y-73255000D01*
X144715000Y-75335000D02*
X144715000Y-75614000D01*
X144715000Y-72976000D02*
X144715000Y-73255000D01*
X144675000Y-75335000D02*
X144675000Y-75678000D01*
X144675000Y-72912000D02*
X144675000Y-73255000D01*
X144635000Y-75335000D02*
X144635000Y-75738000D01*
X144635000Y-72852000D02*
X144635000Y-73255000D01*
X144595000Y-75335000D02*
X144595000Y-75795000D01*
X144595000Y-72795000D02*
X144595000Y-73255000D01*
X144555000Y-75335000D02*
X144555000Y-75849000D01*
X144555000Y-72741000D02*
X144555000Y-73255000D01*
X144515000Y-75335000D02*
X144515000Y-75900000D01*
X144515000Y-72690000D02*
X144515000Y-73255000D01*
X144475000Y-75335000D02*
X144475000Y-75948000D01*
X144475000Y-72642000D02*
X144475000Y-73255000D01*
X144435000Y-75335000D02*
X144435000Y-75994000D01*
X144435000Y-72596000D02*
X144435000Y-73255000D01*
X144395000Y-75335000D02*
X144395000Y-76038000D01*
X144395000Y-72552000D02*
X144395000Y-73255000D01*
X144355000Y-75335000D02*
X144355000Y-76080000D01*
X144355000Y-72510000D02*
X144355000Y-73255000D01*
X144315000Y-75335000D02*
X144315000Y-76121000D01*
X144315000Y-72469000D02*
X144315000Y-73255000D01*
X144275000Y-75335000D02*
X144275000Y-76159000D01*
X144275000Y-72431000D02*
X144275000Y-73255000D01*
X144235000Y-75335000D02*
X144235000Y-76196000D01*
X144235000Y-72394000D02*
X144235000Y-73255000D01*
X144195000Y-75335000D02*
X144195000Y-76232000D01*
X144195000Y-72358000D02*
X144195000Y-73255000D01*
X144155000Y-75335000D02*
X144155000Y-76266000D01*
X144155000Y-72324000D02*
X144155000Y-73255000D01*
X144115000Y-75335000D02*
X144115000Y-76299000D01*
X144115000Y-72291000D02*
X144115000Y-73255000D01*
X144075000Y-75335000D02*
X144075000Y-76330000D01*
X144075000Y-72260000D02*
X144075000Y-73255000D01*
X144035000Y-75335000D02*
X144035000Y-76360000D01*
X144035000Y-72230000D02*
X144035000Y-73255000D01*
X143995000Y-75335000D02*
X143995000Y-76390000D01*
X143995000Y-72200000D02*
X143995000Y-73255000D01*
X143955000Y-75335000D02*
X143955000Y-76417000D01*
X143955000Y-72173000D02*
X143955000Y-73255000D01*
X143915000Y-75335000D02*
X143915000Y-76444000D01*
X143915000Y-72146000D02*
X143915000Y-73255000D01*
X143875000Y-75335000D02*
X143875000Y-76470000D01*
X143875000Y-72120000D02*
X143875000Y-73255000D01*
X143835000Y-75335000D02*
X143835000Y-76495000D01*
X143835000Y-72095000D02*
X143835000Y-73255000D01*
X143795000Y-75335000D02*
X143795000Y-76519000D01*
X143795000Y-72071000D02*
X143795000Y-73255000D01*
X143755000Y-75335000D02*
X143755000Y-76542000D01*
X143755000Y-72048000D02*
X143755000Y-73255000D01*
X143715000Y-75335000D02*
X143715000Y-76563000D01*
X143715000Y-72027000D02*
X143715000Y-73255000D01*
X143675000Y-75335000D02*
X143675000Y-76585000D01*
X143675000Y-72005000D02*
X143675000Y-73255000D01*
X143635000Y-75335000D02*
X143635000Y-76605000D01*
X143635000Y-71985000D02*
X143635000Y-73255000D01*
X143595000Y-75335000D02*
X143595000Y-76624000D01*
X143595000Y-71966000D02*
X143595000Y-73255000D01*
X143555000Y-75335000D02*
X143555000Y-76643000D01*
X143555000Y-71947000D02*
X143555000Y-73255000D01*
X143515000Y-75335000D02*
X143515000Y-76660000D01*
X143515000Y-71930000D02*
X143515000Y-73255000D01*
X143475000Y-75335000D02*
X143475000Y-76677000D01*
X143475000Y-71913000D02*
X143475000Y-73255000D01*
X143435000Y-75335000D02*
X143435000Y-76693000D01*
X143435000Y-71897000D02*
X143435000Y-73255000D01*
X143395000Y-75335000D02*
X143395000Y-76709000D01*
X143395000Y-71881000D02*
X143395000Y-73255000D01*
X143355000Y-75335000D02*
X143355000Y-76723000D01*
X143355000Y-71867000D02*
X143355000Y-73255000D01*
X143315000Y-75335000D02*
X143315000Y-76737000D01*
X143315000Y-71853000D02*
X143315000Y-73255000D01*
X143275000Y-75335000D02*
X143275000Y-76750000D01*
X143275000Y-71840000D02*
X143275000Y-73255000D01*
X143235000Y-75335000D02*
X143235000Y-76763000D01*
X143235000Y-71827000D02*
X143235000Y-73255000D01*
X143195000Y-75335000D02*
X143195000Y-76775000D01*
X143195000Y-71815000D02*
X143195000Y-73255000D01*
X143154000Y-75335000D02*
X143154000Y-76786000D01*
X143154000Y-71804000D02*
X143154000Y-73255000D01*
X143114000Y-75335000D02*
X143114000Y-76796000D01*
X143114000Y-71794000D02*
X143114000Y-73255000D01*
X143074000Y-75335000D02*
X143074000Y-76806000D01*
X143074000Y-71784000D02*
X143074000Y-73255000D01*
X143034000Y-75335000D02*
X143034000Y-76815000D01*
X143034000Y-71775000D02*
X143034000Y-73255000D01*
X142994000Y-75335000D02*
X142994000Y-76823000D01*
X142994000Y-71767000D02*
X142994000Y-73255000D01*
X142954000Y-75335000D02*
X142954000Y-76831000D01*
X142954000Y-71759000D02*
X142954000Y-73255000D01*
X142914000Y-75335000D02*
X142914000Y-76838000D01*
X142914000Y-71752000D02*
X142914000Y-73255000D01*
X142874000Y-75335000D02*
X142874000Y-76845000D01*
X142874000Y-71745000D02*
X142874000Y-73255000D01*
X142834000Y-75335000D02*
X142834000Y-76851000D01*
X142834000Y-71739000D02*
X142834000Y-73255000D01*
X142794000Y-75335000D02*
X142794000Y-76856000D01*
X142794000Y-71734000D02*
X142794000Y-73255000D01*
X142754000Y-75335000D02*
X142754000Y-76860000D01*
X142754000Y-71730000D02*
X142754000Y-73255000D01*
X142714000Y-75335000D02*
X142714000Y-76864000D01*
X142714000Y-71726000D02*
X142714000Y-73255000D01*
X142674000Y-71722000D02*
X142674000Y-76868000D01*
X142634000Y-71719000D02*
X142634000Y-76871000D01*
X142594000Y-71717000D02*
X142594000Y-76873000D01*
X142554000Y-71716000D02*
X142554000Y-76874000D01*
X142514000Y-71715000D02*
X142514000Y-76875000D01*
X142474000Y-71715000D02*
X142474000Y-76875000D01*
X145094000Y-74295000D02*
G75*
G03X145094000Y-74295000I-2620000J0D01*
G01*
G04 #@! TO.C,Q1*
X126016281Y-67759669D02*
X126928448Y-66847501D01*
X126928448Y-66847501D02*
X125938499Y-65857552D01*
X125938499Y-65857552D02*
X125026331Y-66769719D01*
X125026544Y-66769850D02*
G75*
G03X126016281Y-67759669I-1582544J-2572150D01*
G01*
G04 #@! TO.C,Q2*
X132047850Y-68775456D02*
G75*
G03X133037669Y-67785719I2572150J-1582544D01*
G01*
X131135552Y-67863501D02*
X132047719Y-68775669D01*
X132125501Y-66873552D02*
X131135552Y-67863501D01*
X133037669Y-67785719D02*
X132125501Y-66873552D01*
G04 #@! TO.C,R1*
X123725000Y-60039000D02*
X124055000Y-60039000D01*
X123725000Y-53499000D02*
X123725000Y-60039000D01*
X124055000Y-53499000D02*
X123725000Y-53499000D01*
X126465000Y-60039000D02*
X126135000Y-60039000D01*
X126465000Y-53499000D02*
X126465000Y-60039000D01*
X126135000Y-53499000D02*
X126465000Y-53499000D01*
G04 #@! TO.C,R2*
X148106000Y-64675000D02*
X148436000Y-64675000D01*
X148436000Y-64675000D02*
X148436000Y-71215000D01*
X148436000Y-71215000D02*
X148106000Y-71215000D01*
X146026000Y-64675000D02*
X145696000Y-64675000D01*
X145696000Y-64675000D02*
X145696000Y-71215000D01*
X145696000Y-71215000D02*
X146026000Y-71215000D01*
G04 #@! TO.C,R3*
X127230000Y-60039000D02*
X126900000Y-60039000D01*
X126900000Y-60039000D02*
X126900000Y-53499000D01*
X126900000Y-53499000D02*
X127230000Y-53499000D01*
X129310000Y-60039000D02*
X129640000Y-60039000D01*
X129640000Y-60039000D02*
X129640000Y-53499000D01*
X129640000Y-53499000D02*
X129310000Y-53499000D01*
G04 #@! TO.C,R4*
X145588000Y-56382000D02*
X138638000Y-56382000D01*
X145588000Y-51642000D02*
X138638000Y-51642000D01*
X145588000Y-56382000D02*
X145588000Y-54596000D01*
X145588000Y-53606000D02*
X145588000Y-51642000D01*
X138638000Y-56382000D02*
X138638000Y-54596000D01*
X138638000Y-53606000D02*
X138638000Y-51642000D01*
X147108000Y-54042000D02*
X145629000Y-54042000D01*
X147108000Y-52022000D02*
X145589000Y-52022000D01*
X147108000Y-54042000D02*
X147108000Y-52022000D01*
X145589000Y-53606000D02*
X145589000Y-52022000D01*
X147108000Y-53032000D02*
X146349000Y-53032000D01*
G04 #@! TO.C,In*
X145863000Y-75632000D02*
X147193000Y-75632000D01*
X145863000Y-76962000D02*
X145863000Y-75632000D01*
X145863000Y-78232000D02*
X148523000Y-78232000D01*
X148523000Y-78232000D02*
X148523000Y-78292000D01*
X145863000Y-78232000D02*
X145863000Y-78292000D01*
X145863000Y-78292000D02*
X148523000Y-78292000D01*
G04 #@! TO.C,Out*
X120336000Y-78165000D02*
X122996000Y-78165000D01*
X120336000Y-78105000D02*
X120336000Y-78165000D01*
X122996000Y-78105000D02*
X122996000Y-78165000D01*
X120336000Y-78105000D02*
X122996000Y-78105000D01*
X120336000Y-76835000D02*
X120336000Y-75505000D01*
X120336000Y-75505000D02*
X121666000Y-75505000D01*
G04 #@! TO.C,W3*
X127702000Y-67313500D02*
X129032000Y-67313500D01*
X127702000Y-68643500D02*
X127702000Y-67313500D01*
X127702000Y-69913500D02*
X130362000Y-69913500D01*
X130362000Y-69913500D02*
X130362000Y-69973500D01*
X127702000Y-69913500D02*
X127702000Y-69973500D01*
X127702000Y-69973500D02*
X130362000Y-69973500D01*
G04 #@! TO.C,W4*
X120717000Y-64957000D02*
X123377000Y-64957000D01*
X120717000Y-64897000D02*
X120717000Y-64957000D01*
X123377000Y-64897000D02*
X123377000Y-64957000D01*
X120717000Y-64897000D02*
X123377000Y-64897000D01*
X120717000Y-63627000D02*
X120717000Y-62297000D01*
X120717000Y-62297000D02*
X122047000Y-62297000D01*
G04 #@! TO.C,C6*
X144816500Y-65913000D02*
G75*
G03X144816500Y-65913000I-2620000J0D01*
G01*
X142196500Y-68493000D02*
X142196500Y-63333000D01*
X142156500Y-68493000D02*
X142156500Y-63333000D01*
X142116500Y-68492000D02*
X142116500Y-63334000D01*
X142076500Y-68491000D02*
X142076500Y-63335000D01*
X142036500Y-68489000D02*
X142036500Y-63337000D01*
X141996500Y-68486000D02*
X141996500Y-63340000D01*
X141956500Y-68482000D02*
X141956500Y-66953000D01*
X141956500Y-64873000D02*
X141956500Y-63344000D01*
X141916500Y-68478000D02*
X141916500Y-66953000D01*
X141916500Y-64873000D02*
X141916500Y-63348000D01*
X141876500Y-68474000D02*
X141876500Y-66953000D01*
X141876500Y-64873000D02*
X141876500Y-63352000D01*
X141836500Y-68469000D02*
X141836500Y-66953000D01*
X141836500Y-64873000D02*
X141836500Y-63357000D01*
X141796500Y-68463000D02*
X141796500Y-66953000D01*
X141796500Y-64873000D02*
X141796500Y-63363000D01*
X141756500Y-68456000D02*
X141756500Y-66953000D01*
X141756500Y-64873000D02*
X141756500Y-63370000D01*
X141716500Y-68449000D02*
X141716500Y-66953000D01*
X141716500Y-64873000D02*
X141716500Y-63377000D01*
X141676500Y-68441000D02*
X141676500Y-66953000D01*
X141676500Y-64873000D02*
X141676500Y-63385000D01*
X141636500Y-68433000D02*
X141636500Y-66953000D01*
X141636500Y-64873000D02*
X141636500Y-63393000D01*
X141596500Y-68424000D02*
X141596500Y-66953000D01*
X141596500Y-64873000D02*
X141596500Y-63402000D01*
X141556500Y-68414000D02*
X141556500Y-66953000D01*
X141556500Y-64873000D02*
X141556500Y-63412000D01*
X141516500Y-68404000D02*
X141516500Y-66953000D01*
X141516500Y-64873000D02*
X141516500Y-63422000D01*
X141475500Y-68393000D02*
X141475500Y-66953000D01*
X141475500Y-64873000D02*
X141475500Y-63433000D01*
X141435500Y-68381000D02*
X141435500Y-66953000D01*
X141435500Y-64873000D02*
X141435500Y-63445000D01*
X141395500Y-68368000D02*
X141395500Y-66953000D01*
X141395500Y-64873000D02*
X141395500Y-63458000D01*
X141355500Y-68355000D02*
X141355500Y-66953000D01*
X141355500Y-64873000D02*
X141355500Y-63471000D01*
X141315500Y-68341000D02*
X141315500Y-66953000D01*
X141315500Y-64873000D02*
X141315500Y-63485000D01*
X141275500Y-68327000D02*
X141275500Y-66953000D01*
X141275500Y-64873000D02*
X141275500Y-63499000D01*
X141235500Y-68311000D02*
X141235500Y-66953000D01*
X141235500Y-64873000D02*
X141235500Y-63515000D01*
X141195500Y-68295000D02*
X141195500Y-66953000D01*
X141195500Y-64873000D02*
X141195500Y-63531000D01*
X141155500Y-68278000D02*
X141155500Y-66953000D01*
X141155500Y-64873000D02*
X141155500Y-63548000D01*
X141115500Y-68261000D02*
X141115500Y-66953000D01*
X141115500Y-64873000D02*
X141115500Y-63565000D01*
X141075500Y-68242000D02*
X141075500Y-66953000D01*
X141075500Y-64873000D02*
X141075500Y-63584000D01*
X141035500Y-68223000D02*
X141035500Y-66953000D01*
X141035500Y-64873000D02*
X141035500Y-63603000D01*
X140995500Y-68203000D02*
X140995500Y-66953000D01*
X140995500Y-64873000D02*
X140995500Y-63623000D01*
X140955500Y-68181000D02*
X140955500Y-66953000D01*
X140955500Y-64873000D02*
X140955500Y-63645000D01*
X140915500Y-68160000D02*
X140915500Y-66953000D01*
X140915500Y-64873000D02*
X140915500Y-63666000D01*
X140875500Y-68137000D02*
X140875500Y-66953000D01*
X140875500Y-64873000D02*
X140875500Y-63689000D01*
X140835500Y-68113000D02*
X140835500Y-66953000D01*
X140835500Y-64873000D02*
X140835500Y-63713000D01*
X140795500Y-68088000D02*
X140795500Y-66953000D01*
X140795500Y-64873000D02*
X140795500Y-63738000D01*
X140755500Y-68062000D02*
X140755500Y-66953000D01*
X140755500Y-64873000D02*
X140755500Y-63764000D01*
X140715500Y-68035000D02*
X140715500Y-66953000D01*
X140715500Y-64873000D02*
X140715500Y-63791000D01*
X140675500Y-68008000D02*
X140675500Y-66953000D01*
X140675500Y-64873000D02*
X140675500Y-63818000D01*
X140635500Y-67978000D02*
X140635500Y-66953000D01*
X140635500Y-64873000D02*
X140635500Y-63848000D01*
X140595500Y-67948000D02*
X140595500Y-66953000D01*
X140595500Y-64873000D02*
X140595500Y-63878000D01*
X140555500Y-67917000D02*
X140555500Y-66953000D01*
X140555500Y-64873000D02*
X140555500Y-63909000D01*
X140515500Y-67884000D02*
X140515500Y-66953000D01*
X140515500Y-64873000D02*
X140515500Y-63942000D01*
X140475500Y-67850000D02*
X140475500Y-66953000D01*
X140475500Y-64873000D02*
X140475500Y-63976000D01*
X140435500Y-67814000D02*
X140435500Y-66953000D01*
X140435500Y-64873000D02*
X140435500Y-64012000D01*
X140395500Y-67777000D02*
X140395500Y-66953000D01*
X140395500Y-64873000D02*
X140395500Y-64049000D01*
X140355500Y-67739000D02*
X140355500Y-66953000D01*
X140355500Y-64873000D02*
X140355500Y-64087000D01*
X140315500Y-67698000D02*
X140315500Y-66953000D01*
X140315500Y-64873000D02*
X140315500Y-64128000D01*
X140275500Y-67656000D02*
X140275500Y-66953000D01*
X140275500Y-64873000D02*
X140275500Y-64170000D01*
X140235500Y-67612000D02*
X140235500Y-66953000D01*
X140235500Y-64873000D02*
X140235500Y-64214000D01*
X140195500Y-67566000D02*
X140195500Y-66953000D01*
X140195500Y-64873000D02*
X140195500Y-64260000D01*
X140155500Y-67518000D02*
X140155500Y-66953000D01*
X140155500Y-64873000D02*
X140155500Y-64308000D01*
X140115500Y-67467000D02*
X140115500Y-66953000D01*
X140115500Y-64873000D02*
X140115500Y-64359000D01*
X140075500Y-67413000D02*
X140075500Y-66953000D01*
X140075500Y-64873000D02*
X140075500Y-64413000D01*
X140035500Y-67356000D02*
X140035500Y-66953000D01*
X140035500Y-64873000D02*
X140035500Y-64470000D01*
X139995500Y-67296000D02*
X139995500Y-66953000D01*
X139995500Y-64873000D02*
X139995500Y-64530000D01*
X139955500Y-67232000D02*
X139955500Y-66953000D01*
X139955500Y-64873000D02*
X139955500Y-64594000D01*
X139915500Y-67164000D02*
X139915500Y-66953000D01*
X139915500Y-64873000D02*
X139915500Y-64662000D01*
X139875500Y-67091000D02*
X139875500Y-64735000D01*
X139835500Y-67011000D02*
X139835500Y-64815000D01*
X139795500Y-66924000D02*
X139795500Y-64902000D01*
X139755500Y-66828000D02*
X139755500Y-64998000D01*
X139715500Y-66718000D02*
X139715500Y-65108000D01*
X139675500Y-66590000D02*
X139675500Y-65236000D01*
X139635500Y-66431000D02*
X139635500Y-65395000D01*
X139595500Y-66197000D02*
X139595500Y-65629000D01*
X145001275Y-67388000D02*
X144501275Y-67388000D01*
X144751275Y-67638000D02*
X144751275Y-67138000D01*
G04 #@! TO.C,Bias*
D10*
X136771190Y-65079571D02*
X136914047Y-65127190D01*
X136961666Y-65174809D01*
X137009285Y-65270047D01*
X137009285Y-65412904D01*
X136961666Y-65508142D01*
X136914047Y-65555761D01*
X136818809Y-65603380D01*
X136437857Y-65603380D01*
X136437857Y-64603380D01*
X136771190Y-64603380D01*
X136866428Y-64651000D01*
X136914047Y-64698619D01*
X136961666Y-64793857D01*
X136961666Y-64889095D01*
X136914047Y-64984333D01*
X136866428Y-65031952D01*
X136771190Y-65079571D01*
X136437857Y-65079571D01*
X137437857Y-65603380D02*
X137437857Y-64936714D01*
X137437857Y-64603380D02*
X137390238Y-64651000D01*
X137437857Y-64698619D01*
X137485476Y-64651000D01*
X137437857Y-64603380D01*
X137437857Y-64698619D01*
X138342619Y-65603380D02*
X138342619Y-65079571D01*
X138295000Y-64984333D01*
X138199761Y-64936714D01*
X138009285Y-64936714D01*
X137914047Y-64984333D01*
X138342619Y-65555761D02*
X138247380Y-65603380D01*
X138009285Y-65603380D01*
X137914047Y-65555761D01*
X137866428Y-65460523D01*
X137866428Y-65365285D01*
X137914047Y-65270047D01*
X138009285Y-65222428D01*
X138247380Y-65222428D01*
X138342619Y-65174809D01*
X138771190Y-65555761D02*
X138866428Y-65603380D01*
X139056904Y-65603380D01*
X139152142Y-65555761D01*
X139199761Y-65460523D01*
X139199761Y-65412904D01*
X139152142Y-65317666D01*
X139056904Y-65270047D01*
X138914047Y-65270047D01*
X138818809Y-65222428D01*
X138771190Y-65127190D01*
X138771190Y-65079571D01*
X138818809Y-64984333D01*
X138914047Y-64936714D01*
X139056904Y-64936714D01*
X139152142Y-64984333D01*
G04 #@! TO.C,C1*
X145375333Y-58459642D02*
X145327714Y-58507261D01*
X145184857Y-58554880D01*
X145089619Y-58554880D01*
X144946761Y-58507261D01*
X144851523Y-58412023D01*
X144803904Y-58316785D01*
X144756285Y-58126309D01*
X144756285Y-57983452D01*
X144803904Y-57792976D01*
X144851523Y-57697738D01*
X144946761Y-57602500D01*
X145089619Y-57554880D01*
X145184857Y-57554880D01*
X145327714Y-57602500D01*
X145375333Y-57650119D01*
X146327714Y-58554880D02*
X145756285Y-58554880D01*
X146042000Y-58554880D02*
X146042000Y-57554880D01*
X145946761Y-57697738D01*
X145851523Y-57792976D01*
X145756285Y-57840595D01*
G04 #@! TO.C,C2*
X120991333Y-61063142D02*
X120943714Y-61110761D01*
X120800857Y-61158380D01*
X120705619Y-61158380D01*
X120562761Y-61110761D01*
X120467523Y-61015523D01*
X120419904Y-60920285D01*
X120372285Y-60729809D01*
X120372285Y-60586952D01*
X120419904Y-60396476D01*
X120467523Y-60301238D01*
X120562761Y-60206000D01*
X120705619Y-60158380D01*
X120800857Y-60158380D01*
X120943714Y-60206000D01*
X120991333Y-60253619D01*
X121372285Y-60253619D02*
X121419904Y-60206000D01*
X121515142Y-60158380D01*
X121753238Y-60158380D01*
X121848476Y-60206000D01*
X121896095Y-60253619D01*
X121943714Y-60348857D01*
X121943714Y-60444095D01*
X121896095Y-60586952D01*
X121324666Y-61158380D01*
X121943714Y-61158380D01*
G04 #@! TO.C,C3*
X131405333Y-58650142D02*
X131357714Y-58697761D01*
X131214857Y-58745380D01*
X131119619Y-58745380D01*
X130976761Y-58697761D01*
X130881523Y-58602523D01*
X130833904Y-58507285D01*
X130786285Y-58316809D01*
X130786285Y-58173952D01*
X130833904Y-57983476D01*
X130881523Y-57888238D01*
X130976761Y-57793000D01*
X131119619Y-57745380D01*
X131214857Y-57745380D01*
X131357714Y-57793000D01*
X131405333Y-57840619D01*
X131738666Y-57745380D02*
X132357714Y-57745380D01*
X132024380Y-58126333D01*
X132167238Y-58126333D01*
X132262476Y-58173952D01*
X132310095Y-58221571D01*
X132357714Y-58316809D01*
X132357714Y-58554904D01*
X132310095Y-58650142D01*
X132262476Y-58697761D01*
X132167238Y-58745380D01*
X131881523Y-58745380D01*
X131786285Y-58697761D01*
X131738666Y-58650142D01*
G04 #@! TO.C,C4*
X133905333Y-52681142D02*
X133857714Y-52728761D01*
X133714857Y-52776380D01*
X133619619Y-52776380D01*
X133476761Y-52728761D01*
X133381523Y-52633523D01*
X133333904Y-52538285D01*
X133286285Y-52347809D01*
X133286285Y-52204952D01*
X133333904Y-52014476D01*
X133381523Y-51919238D01*
X133476761Y-51824000D01*
X133619619Y-51776380D01*
X133714857Y-51776380D01*
X133857714Y-51824000D01*
X133905333Y-51871619D01*
X134762476Y-52109714D02*
X134762476Y-52776380D01*
X134524380Y-51728761D02*
X134286285Y-52443047D01*
X134905333Y-52443047D01*
G04 #@! TO.C,C5*
X145692857Y-74001333D02*
X145645238Y-73953714D01*
X145597619Y-73810857D01*
X145597619Y-73715619D01*
X145645238Y-73572761D01*
X145740476Y-73477523D01*
X145835714Y-73429904D01*
X146026190Y-73382285D01*
X146169047Y-73382285D01*
X146359523Y-73429904D01*
X146454761Y-73477523D01*
X146550000Y-73572761D01*
X146597619Y-73715619D01*
X146597619Y-73810857D01*
X146550000Y-73953714D01*
X146502380Y-74001333D01*
X146597619Y-74906095D02*
X146597619Y-74429904D01*
X146121428Y-74382285D01*
X146169047Y-74429904D01*
X146216666Y-74525142D01*
X146216666Y-74763238D01*
X146169047Y-74858476D01*
X146121428Y-74906095D01*
X146026190Y-74953714D01*
X145788095Y-74953714D01*
X145692857Y-74906095D01*
X145645238Y-74858476D01*
X145597619Y-74763238D01*
X145597619Y-74525142D01*
X145645238Y-74429904D01*
X145692857Y-74382285D01*
G04 #@! TO.C,Gain*
X143518047Y-46998000D02*
X143422809Y-46950380D01*
X143279952Y-46950380D01*
X143137095Y-46998000D01*
X143041857Y-47093238D01*
X142994238Y-47188476D01*
X142946619Y-47378952D01*
X142946619Y-47521809D01*
X142994238Y-47712285D01*
X143041857Y-47807523D01*
X143137095Y-47902761D01*
X143279952Y-47950380D01*
X143375190Y-47950380D01*
X143518047Y-47902761D01*
X143565666Y-47855142D01*
X143565666Y-47521809D01*
X143375190Y-47521809D01*
X144422809Y-47950380D02*
X144422809Y-47426571D01*
X144375190Y-47331333D01*
X144279952Y-47283714D01*
X144089476Y-47283714D01*
X143994238Y-47331333D01*
X144422809Y-47902761D02*
X144327571Y-47950380D01*
X144089476Y-47950380D01*
X143994238Y-47902761D01*
X143946619Y-47807523D01*
X143946619Y-47712285D01*
X143994238Y-47617047D01*
X144089476Y-47569428D01*
X144327571Y-47569428D01*
X144422809Y-47521809D01*
X144899000Y-47950380D02*
X144899000Y-47283714D01*
X144899000Y-46950380D02*
X144851380Y-46998000D01*
X144899000Y-47045619D01*
X144946619Y-46998000D01*
X144899000Y-46950380D01*
X144899000Y-47045619D01*
X145375190Y-47283714D02*
X145375190Y-47950380D01*
X145375190Y-47378952D02*
X145422809Y-47331333D01*
X145518047Y-47283714D01*
X145660904Y-47283714D01*
X145756142Y-47331333D01*
X145803761Y-47426571D01*
X145803761Y-47950380D01*
G04 #@! TO.C,+9V*
D12*
X130921285Y-47696428D02*
X131683190Y-47696428D01*
X131302238Y-48077380D02*
X131302238Y-47315476D01*
X132207000Y-48077380D02*
X132397476Y-48077380D01*
X132492714Y-48029761D01*
X132540333Y-47982142D01*
X132635571Y-47839285D01*
X132683190Y-47648809D01*
X132683190Y-47267857D01*
X132635571Y-47172619D01*
X132587952Y-47125000D01*
X132492714Y-47077380D01*
X132302238Y-47077380D01*
X132207000Y-47125000D01*
X132159380Y-47172619D01*
X132111761Y-47267857D01*
X132111761Y-47505952D01*
X132159380Y-47601190D01*
X132207000Y-47648809D01*
X132302238Y-47696428D01*
X132492714Y-47696428D01*
X132587952Y-47648809D01*
X132635571Y-47601190D01*
X132683190Y-47505952D01*
X132968904Y-47077380D02*
X133302238Y-48077380D01*
X133635571Y-47077380D01*
G04 #@! TO.C,Q1*
D10*
X123348761Y-73699619D02*
X123253523Y-73652000D01*
X123158285Y-73556761D01*
X123015428Y-73413904D01*
X122920190Y-73366285D01*
X122824952Y-73366285D01*
X122872571Y-73604380D02*
X122777333Y-73556761D01*
X122682095Y-73461523D01*
X122634476Y-73271047D01*
X122634476Y-72937714D01*
X122682095Y-72747238D01*
X122777333Y-72652000D01*
X122872571Y-72604380D01*
X123063047Y-72604380D01*
X123158285Y-72652000D01*
X123253523Y-72747238D01*
X123301142Y-72937714D01*
X123301142Y-73271047D01*
X123253523Y-73461523D01*
X123158285Y-73556761D01*
X123063047Y-73604380D01*
X122872571Y-73604380D01*
X124253523Y-73604380D02*
X123682095Y-73604380D01*
X123967809Y-73604380D02*
X123967809Y-72604380D01*
X123872571Y-72747238D01*
X123777333Y-72842476D01*
X123682095Y-72890095D01*
G04 #@! TO.C,Q2*
X134651761Y-74715619D02*
X134556523Y-74668000D01*
X134461285Y-74572761D01*
X134318428Y-74429904D01*
X134223190Y-74382285D01*
X134127952Y-74382285D01*
X134175571Y-74620380D02*
X134080333Y-74572761D01*
X133985095Y-74477523D01*
X133937476Y-74287047D01*
X133937476Y-73953714D01*
X133985095Y-73763238D01*
X134080333Y-73668000D01*
X134175571Y-73620380D01*
X134366047Y-73620380D01*
X134461285Y-73668000D01*
X134556523Y-73763238D01*
X134604142Y-73953714D01*
X134604142Y-74287047D01*
X134556523Y-74477523D01*
X134461285Y-74572761D01*
X134366047Y-74620380D01*
X134175571Y-74620380D01*
X134985095Y-73715619D02*
X135032714Y-73668000D01*
X135127952Y-73620380D01*
X135366047Y-73620380D01*
X135461285Y-73668000D01*
X135508904Y-73715619D01*
X135556523Y-73810857D01*
X135556523Y-73906095D01*
X135508904Y-74048952D01*
X134937476Y-74620380D01*
X135556523Y-74620380D01*
G04 #@! TO.C,R1*
X124928333Y-62809380D02*
X124595000Y-62333190D01*
X124356904Y-62809380D02*
X124356904Y-61809380D01*
X124737857Y-61809380D01*
X124833095Y-61857000D01*
X124880714Y-61904619D01*
X124928333Y-61999857D01*
X124928333Y-62142714D01*
X124880714Y-62237952D01*
X124833095Y-62285571D01*
X124737857Y-62333190D01*
X124356904Y-62333190D01*
X125880714Y-62809380D02*
X125309285Y-62809380D01*
X125595000Y-62809380D02*
X125595000Y-61809380D01*
X125499761Y-61952238D01*
X125404523Y-62047476D01*
X125309285Y-62095095D01*
G04 #@! TO.C,R2*
X146962833Y-62872880D02*
X146629500Y-62396690D01*
X146391404Y-62872880D02*
X146391404Y-61872880D01*
X146772357Y-61872880D01*
X146867595Y-61920500D01*
X146915214Y-61968119D01*
X146962833Y-62063357D01*
X146962833Y-62206214D01*
X146915214Y-62301452D01*
X146867595Y-62349071D01*
X146772357Y-62396690D01*
X146391404Y-62396690D01*
X147343785Y-61968119D02*
X147391404Y-61920500D01*
X147486642Y-61872880D01*
X147724738Y-61872880D01*
X147819976Y-61920500D01*
X147867595Y-61968119D01*
X147915214Y-62063357D01*
X147915214Y-62158595D01*
X147867595Y-62301452D01*
X147296166Y-62872880D01*
X147915214Y-62872880D01*
G04 #@! TO.C,R3*
X128103333Y-62809380D02*
X127770000Y-62333190D01*
X127531904Y-62809380D02*
X127531904Y-61809380D01*
X127912857Y-61809380D01*
X128008095Y-61857000D01*
X128055714Y-61904619D01*
X128103333Y-61999857D01*
X128103333Y-62142714D01*
X128055714Y-62237952D01*
X128008095Y-62285571D01*
X127912857Y-62333190D01*
X127531904Y-62333190D01*
X128436666Y-61809380D02*
X129055714Y-61809380D01*
X128722380Y-62190333D01*
X128865238Y-62190333D01*
X128960476Y-62237952D01*
X129008095Y-62285571D01*
X129055714Y-62380809D01*
X129055714Y-62618904D01*
X129008095Y-62714142D01*
X128960476Y-62761761D01*
X128865238Y-62809380D01*
X128579523Y-62809380D01*
X128484285Y-62761761D01*
X128436666Y-62714142D01*
G04 #@! TO.C,R4*
X146883380Y-55538666D02*
X146407190Y-55872000D01*
X146883380Y-56110095D02*
X145883380Y-56110095D01*
X145883380Y-55729142D01*
X145931000Y-55633904D01*
X145978619Y-55586285D01*
X146073857Y-55538666D01*
X146216714Y-55538666D01*
X146311952Y-55586285D01*
X146359571Y-55633904D01*
X146407190Y-55729142D01*
X146407190Y-56110095D01*
X146216714Y-54681523D02*
X146883380Y-54681523D01*
X145835761Y-54919619D02*
X146550047Y-55157714D01*
X146550047Y-54538666D01*
G04 #@! TO.C,Volume*
X121483761Y-46696380D02*
X121817095Y-47696380D01*
X122150428Y-46696380D01*
X122626619Y-47696380D02*
X122531380Y-47648761D01*
X122483761Y-47601142D01*
X122436142Y-47505904D01*
X122436142Y-47220190D01*
X122483761Y-47124952D01*
X122531380Y-47077333D01*
X122626619Y-47029714D01*
X122769476Y-47029714D01*
X122864714Y-47077333D01*
X122912333Y-47124952D01*
X122959952Y-47220190D01*
X122959952Y-47505904D01*
X122912333Y-47601142D01*
X122864714Y-47648761D01*
X122769476Y-47696380D01*
X122626619Y-47696380D01*
X123531380Y-47696380D02*
X123436142Y-47648761D01*
X123388523Y-47553523D01*
X123388523Y-46696380D01*
X124340904Y-47029714D02*
X124340904Y-47696380D01*
X123912333Y-47029714D02*
X123912333Y-47553523D01*
X123959952Y-47648761D01*
X124055190Y-47696380D01*
X124198047Y-47696380D01*
X124293285Y-47648761D01*
X124340904Y-47601142D01*
X124817095Y-47696380D02*
X124817095Y-47029714D01*
X124817095Y-47124952D02*
X124864714Y-47077333D01*
X124959952Y-47029714D01*
X125102809Y-47029714D01*
X125198047Y-47077333D01*
X125245666Y-47172571D01*
X125245666Y-47696380D01*
X125245666Y-47172571D02*
X125293285Y-47077333D01*
X125388523Y-47029714D01*
X125531380Y-47029714D01*
X125626619Y-47077333D01*
X125674238Y-47172571D01*
X125674238Y-47696380D01*
X126531380Y-47648761D02*
X126436142Y-47696380D01*
X126245666Y-47696380D01*
X126150428Y-47648761D01*
X126102809Y-47553523D01*
X126102809Y-47172571D01*
X126150428Y-47077333D01*
X126245666Y-47029714D01*
X126436142Y-47029714D01*
X126531380Y-47077333D01*
X126579000Y-47172571D01*
X126579000Y-47267809D01*
X126102809Y-47363047D01*
G04 #@! TO.C,In*
X146740619Y-79700380D02*
X146740619Y-78700380D01*
X147216809Y-79033714D02*
X147216809Y-79700380D01*
X147216809Y-79128952D02*
X147264428Y-79081333D01*
X147359666Y-79033714D01*
X147502523Y-79033714D01*
X147597761Y-79081333D01*
X147645380Y-79176571D01*
X147645380Y-79700380D01*
G04 #@! TO.C,Out*
X120832666Y-78827380D02*
X121023142Y-78827380D01*
X121118380Y-78875000D01*
X121213619Y-78970238D01*
X121261238Y-79160714D01*
X121261238Y-79494047D01*
X121213619Y-79684523D01*
X121118380Y-79779761D01*
X121023142Y-79827380D01*
X120832666Y-79827380D01*
X120737428Y-79779761D01*
X120642190Y-79684523D01*
X120594571Y-79494047D01*
X120594571Y-79160714D01*
X120642190Y-78970238D01*
X120737428Y-78875000D01*
X120832666Y-78827380D01*
X122118380Y-79160714D02*
X122118380Y-79827380D01*
X121689809Y-79160714D02*
X121689809Y-79684523D01*
X121737428Y-79779761D01*
X121832666Y-79827380D01*
X121975523Y-79827380D01*
X122070761Y-79779761D01*
X122118380Y-79732142D01*
X122451714Y-79160714D02*
X122832666Y-79160714D01*
X122594571Y-78827380D02*
X122594571Y-79684523D01*
X122642190Y-79779761D01*
X122737428Y-79827380D01*
X122832666Y-79827380D01*
G04 #@! TO.C,W3*
X128127238Y-70635880D02*
X128365333Y-71635880D01*
X128555809Y-70921595D01*
X128746285Y-71635880D01*
X128984380Y-70635880D01*
X129270095Y-70635880D02*
X129889142Y-70635880D01*
X129555809Y-71016833D01*
X129698666Y-71016833D01*
X129793904Y-71064452D01*
X129841523Y-71112071D01*
X129889142Y-71207309D01*
X129889142Y-71445404D01*
X129841523Y-71540642D01*
X129793904Y-71588261D01*
X129698666Y-71635880D01*
X129412952Y-71635880D01*
X129317714Y-71588261D01*
X129270095Y-71540642D01*
G04 #@! TO.C,W4*
X123428238Y-63968380D02*
X123666333Y-64968380D01*
X123856809Y-64254095D01*
X124047285Y-64968380D01*
X124285380Y-63968380D01*
X125094904Y-64301714D02*
X125094904Y-64968380D01*
X124856809Y-63920761D02*
X124618714Y-64635047D01*
X125237761Y-64635047D01*
G04 #@! TO.C,C6*
X139025333Y-68810142D02*
X138977714Y-68857761D01*
X138834857Y-68905380D01*
X138739619Y-68905380D01*
X138596761Y-68857761D01*
X138501523Y-68762523D01*
X138453904Y-68667285D01*
X138406285Y-68476809D01*
X138406285Y-68333952D01*
X138453904Y-68143476D01*
X138501523Y-68048238D01*
X138596761Y-67953000D01*
X138739619Y-67905380D01*
X138834857Y-67905380D01*
X138977714Y-67953000D01*
X139025333Y-68000619D01*
X139882476Y-67905380D02*
X139692000Y-67905380D01*
X139596761Y-67953000D01*
X139549142Y-68000619D01*
X139453904Y-68143476D01*
X139406285Y-68333952D01*
X139406285Y-68714904D01*
X139453904Y-68810142D01*
X139501523Y-68857761D01*
X139596761Y-68905380D01*
X139787238Y-68905380D01*
X139882476Y-68857761D01*
X139930095Y-68810142D01*
X139977714Y-68714904D01*
X139977714Y-68476809D01*
X139930095Y-68381571D01*
X139882476Y-68333952D01*
X139787238Y-68286333D01*
X139596761Y-68286333D01*
X139501523Y-68333952D01*
X139453904Y-68381571D01*
X139406285Y-68476809D01*
G04 #@! TD*
M02*
